<svg width="63" height="26" viewBox="0 0 63 26" fill="none" xmlns="http://www.w3.org/2000/svg">
<g clip-path="url(#clip0_1101_635)">
<path d="M31.2466 3C15.7458 3 0.994141 7.47713 0.994141 13C0.994141 18.5229 14.5386 23 31.2466 23C47.9545 23 61.499 18.5229 61.499 13C61.4982 7.36978 46.2916 3 31.2466 3ZM8.98054 11.6978C8.98054 8.881 17.5906 5.89297 26.594 5.06851C24.5501 6.77889 18.4011 11.9182 17.0054 13C15.4369 14.2154 13.8863 15.0792 12.5652 14.6956C12.4677 14.6612 12.371 14.6268 12.2767 14.5915C12.2366 14.5743 12.2005 14.5604 12.1685 14.5514C10.1459 13.7818 8.98054 12.8263 8.98054 11.6978ZM25.0025 16.6535C24.6001 16.5814 24.0625 16.3699 23.7289 15.7733C23.1405 14.7227 22.5103 14.6391 23.7707 13.5884C23.7707 13.5884 29.8419 8.31552 31.2916 8.31552C32.7414 8.31552 38.8166 13.5884 38.8166 13.5884C40.0771 14.6391 39.4469 14.7227 38.8584 15.7733C38.5249 16.3691 37.9889 16.5814 37.5865 16.6535C35.5901 16.7658 33.4773 16.824 31.2916 16.824C29.1076 16.8231 26.9973 16.7658 25.0025 16.6535ZM50.0099 14.6981C48.6912 15.0734 47.1448 14.2121 45.5811 13C44.1797 11.9133 37.9856 6.73627 35.9679 5.04721C45.332 5.84216 53.6027 8.85642 53.6027 11.6969C53.6027 12.9 52.2816 13.9048 50.0099 14.6981Z" fill="#414141"/>
</g>
<defs>
<clipPath id="clip0_1101_635">
<rect width="62" height="26" fill="white" transform="translate(0.505859)"/>
</clipPath>
</defs>
</svg>
