<svg width="71" height="26" viewBox="0 0 71 26" fill="none" xmlns="http://www.w3.org/2000/svg">
<path fill-rule="evenodd" clip-rule="evenodd" d="M14.6283 2.5H15.319L15.3398 2.5007C17.7021 2.57977 19.9598 3.42022 21.7894 4.87403C23.619 3.42022 25.8767 2.57977 28.239 2.5007L28.2598 2.5H28.9505L28.9713 2.5007C31.3335 2.57977 33.5912 3.42022 35.4208 4.87403C37.2505 3.42022 39.5082 2.57977 41.8704 2.5007L41.8912 2.5H42.5819L42.6027 2.5007C44.965 2.57977 47.2226 3.42022 49.0523 4.87403C50.8819 3.42022 53.1396 2.57977 55.5019 2.5007L55.5226 2.5H56.2134L56.2342 2.5007C59.1147 2.59712 61.8398 3.82571 63.8229 5.91806C65.8056 8.01005 66.888 10.798 66.8402 13.6805C66.7923 16.563 65.6178 19.3134 63.5665 21.3382C61.5148 23.3632 58.7502 24.5 55.868 24.5C53.3811 24.5 50.9817 23.6536 49.0523 22.1205C47.1229 23.6536 44.7235 24.5 42.2366 24.5C39.7496 24.5 37.3502 23.6536 35.4208 22.1205C33.4915 23.6536 31.0921 24.5 28.6051 24.5C26.1182 24.5 23.7188 23.6536 21.7894 22.1205C19.86 23.6536 17.4606 24.5 14.9737 24.5C12.0915 24.5 9.32685 23.3632 7.27519 21.3382C5.22389 19.3134 4.0494 16.563 4.00152 13.6805C3.95364 10.798 5.03611 8.01005 7.01881 5.91806C9.00184 3.82571 11.727 2.59712 14.6075 2.5007L14.6283 2.5ZM23.5487 20.3631C25.0045 21.4459 26.7754 22.0389 28.6051 22.0389C30.4348 22.0389 32.2057 21.4459 33.6615 20.3631C32.1547 18.4713 31.305 16.1234 31.2644 13.6805C31.2218 11.1145 32.0749 8.62334 33.6615 6.63144C32.2896 5.61108 30.6342 5.02301 28.9082 4.96113H28.3021C26.5761 5.02301 24.9207 5.61108 23.5487 6.63144C25.1353 8.62334 25.9884 11.1145 25.9458 13.6805C25.9052 16.1234 25.0555 18.4713 23.5487 20.3631ZM21.7894 8.39364C22.9056 9.89886 23.5038 11.7418 23.4723 13.6398C23.4424 15.4418 22.8468 17.1749 21.7894 18.6009C20.732 17.1749 20.1364 15.4418 20.1065 13.6398C20.075 11.7418 20.6732 9.89886 21.7894 8.39364ZM20.0301 6.63144C18.4435 8.62334 17.5903 11.1145 17.633 13.6805C17.6735 16.1234 18.5233 18.4713 20.0301 20.3631C18.5742 21.4459 16.8033 22.0389 14.9737 22.0389C12.7474 22.0389 10.6081 21.161 9.01756 19.591C7.42665 18.0207 6.51231 15.8837 6.47504 13.6398C6.43777 11.396 7.28064 9.22933 8.81874 7.60645C10.3519 5.98881 12.453 5.04063 14.6706 4.96113H15.2767C17.0027 5.02301 18.6581 5.61108 20.0301 6.63144ZM35.4208 8.39364C34.3047 9.89886 33.7064 11.7418 33.7379 13.6398C33.7679 15.4418 34.3634 17.1749 35.4208 18.6009C36.4782 17.1749 37.0738 15.4418 37.1038 13.6398C37.1353 11.7418 36.537 9.89886 35.4208 8.39364ZM37.1802 20.3631C38.636 21.4459 40.4069 22.0389 42.2366 22.0389C44.0662 22.0389 45.8371 21.4459 47.293 20.3631C45.7861 18.4713 44.9364 16.1234 44.8959 13.6805C44.8532 11.1145 45.7064 8.62334 47.293 6.63144C45.921 5.61108 44.2656 5.02301 42.5396 4.96113H41.9335C40.2075 5.02301 38.5521 5.61108 37.1801 6.63144C38.7667 8.62334 39.6199 11.1145 39.5773 13.6805C39.5367 16.1234 38.687 18.4713 37.1802 20.3631ZM49.0523 8.39365C47.9361 9.89886 47.3378 11.7418 47.3694 13.6398C47.3993 15.4418 47.9949 17.1749 49.0523 18.6009C50.1097 17.1749 50.7053 15.4418 50.7352 13.6398C50.7667 11.7418 50.1684 9.89886 49.0523 8.39365ZM50.8116 20.3631C52.2674 21.4459 54.0383 22.0389 55.868 22.0389C58.0943 22.0389 60.2336 21.161 61.8241 19.591C63.415 18.0207 64.3294 15.8837 64.3666 13.6398C64.4039 11.396 63.561 9.22934 62.0229 7.60645C60.4898 5.98881 58.3887 5.04063 56.171 4.96113H55.565C53.8389 5.02301 52.1835 5.61108 50.8116 6.63144C52.3982 8.62335 53.2513 11.1145 53.2087 13.6805C53.1681 16.1234 52.3184 18.4713 50.8116 20.3631Z" fill="#414141"/>
</svg>
