<svg width="25" height="26" viewBox="0 0 25 26" fill="none" xmlns="http://www.w3.org/2000/svg">
<g clip-path="url(#clip0_1101_568)">
<path d="M12.5003 0.5C5.59685 0.5 0 6.0963 0 13C0 19.9036 5.59685 25.5 12.5003 25.5C19.4042 25.5 25.0005 19.9036 25.0005 13C25.0005 6.0963 19.4043 0.5 12.5003 0.5ZM12.5003 24.875C5.94165 24.875 0.625557 19.5584 0.625557 13C0.625557 6.44165 5.94165 1.12484 12.5003 1.12484C19.0589 1.12484 24.3754 6.44162 24.3754 13C24.3754 19.5584 19.0589 24.875 12.5003 24.875Z" fill="#414141"/>
<path d="M12.8195 4.82326L13.6465 2.63136V4.82326H14.2746V1.68408H13.3307L12.4721 3.9317H12.4803L11.6217 1.68408H10.6777V4.82326H11.3059V2.63136L12.1329 4.82326H12.8195Z" fill="#111212"/>
<path d="M21.4396 6.23112L20.3664 7.79586L22.052 6.96684L22.5092 7.51511L19.8563 8.84717L19.3202 8.19818L20.3486 6.64769L20.3425 6.64004L18.632 7.37217L18.0898 6.72755L19.8786 4.35889L20.3359 4.90745L19.2158 6.41577L20.9493 5.64263L21.4396 6.23112Z" fill="#111212"/>
<path d="M6.94072 5.63107C6.68791 5.38566 6.29781 5.31167 5.93108 5.53901C6.00129 5.35742 5.97278 5.17258 5.93567 5.07006C5.77748 4.78245 5.72204 4.74607 5.59289 4.63696C5.17124 4.2837 4.72769 4.58535 4.41083 4.96297L2.87891 6.78867L5.2872 8.80912L6.90257 6.88431C7.27179 6.44438 7.32878 6.00823 6.94072 5.63107ZM3.82537 6.51152L4.74554 5.41493C4.85233 5.28802 5.09343 5.2931 5.24803 5.42334C5.4184 5.56626 5.41889 5.76866 5.30449 5.90524L4.39455 6.98915L3.82537 6.51152ZM6.36395 6.69384L5.40469 7.83701L4.80404 7.33218L5.77043 6.18018C5.87978 6.04994 6.12342 6.01206 6.28769 6.14987C6.47278 6.30554 6.49108 6.54229 6.36395 6.69384Z" fill="#111212"/>
<path d="M12.8254 4.70217L13.6524 2.51031V4.70217H14.2806V1.56299H13.3365L12.478 3.81053H12.4862L11.6276 1.56299H10.6836V4.70217H11.3118V2.51031L12.1388 4.70217H12.8254Z" fill="#414141"/>
<path d="M21.4449 6.02065L20.3722 7.58544L22.0578 6.75615L22.5146 7.30468L19.862 8.63674L19.326 7.98751L20.3544 6.43722L20.3484 6.42935L18.6373 7.16177L18.0957 6.51682L19.8845 4.14844L20.3417 4.69678L19.2218 6.20507L20.9546 5.43223L21.4449 6.02065Z" fill="#414141"/>
<path d="M6.82748 5.56965C6.57518 5.32423 6.18456 5.2502 5.8184 5.47734C5.88804 5.29572 5.85958 5.11086 5.82249 5.00885C5.66428 4.72075 5.60936 4.68487 5.47912 4.57554C5.05749 4.22206 4.61448 4.52387 4.29811 4.90184L2.76562 6.72724L5.17397 8.74771L6.78933 6.82261C7.1581 6.38266 7.21554 5.94681 6.82748 5.56965ZM3.71221 6.45004L4.63229 5.35373C4.73863 5.2266 4.97968 5.23168 5.13481 5.3616C5.3052 5.50479 5.30572 5.70743 5.19074 5.8435L4.28137 6.92762L3.71221 6.45004ZM6.25124 6.63236L5.29198 7.77551L4.69027 7.27067L5.6572 6.11843C5.76653 5.98848 6.00965 5.95058 6.17395 6.08844C6.36008 6.24431 6.3784 6.48057 6.25124 6.63236Z" fill="#414141"/>
<path d="M4.80469 12.9999C4.80469 8.74913 8.25059 5.30322 12.5011 5.30322C16.7521 5.30322 20.1975 8.74913 20.1975 12.9999C20.1975 17.2504 16.7521 20.6962 12.5011 20.6962C8.25057 20.6962 4.80469 17.2504 4.80469 12.9999Z" fill="#414141"/>
<path d="M5.02539 12.9998C5.02539 8.8714 8.3721 5.52441 12.5006 5.52441C16.629 5.52441 19.9762 8.87137 19.9762 12.9998C19.9762 17.1283 16.629 20.4753 12.5006 20.4753C8.37213 20.4753 5.02539 17.1283 5.02539 12.9998Z" fill="#414141"/>
<path d="M5.01367 13H12.5005V5.51318C8.36544 5.51318 5.01367 8.86498 5.01367 13Z" fill="#111212"/>
<path d="M12.5 13V20.4869C16.635 20.4869 19.9869 17.1345 19.9869 13H12.5Z" fill="#111212"/>
<path d="M20.0509 12.8668H12.6348V5.45068H12.3693V12.8668H4.95312V13.1323H12.3693V20.5487H12.6348V13.1323H20.0509V12.8668Z" fill="#111212"/>
<path d="M12.6328 5.66081C16.5823 5.73105 19.7692 8.91775 19.8399 12.8669H19.9721C19.9015 8.84451 16.6555 5.59805 12.6328 5.52783V5.66081H12.6328Z" fill="#111212"/>
<path d="M5.14838 12.8661C5.21855 8.9116 8.41011 5.72031 12.3646 5.64985V5.51709C8.33642 5.58753 5.08633 8.83833 5.01562 12.8661H5.14838V12.8661Z" fill="#111212"/>
<path d="M12.3686 20.3388C8.41919 20.2687 5.23222 17.0817 5.162 13.1323H5.0293C5.09998 17.1549 8.34597 20.4015 12.3686 20.4717V20.3388H12.3686Z" fill="#111212"/>
<path d="M19.8399 13.1323C19.7692 17.0817 16.5822 20.2687 12.6328 20.3388V20.4717C16.6555 20.4015 19.9019 17.155 19.9721 13.1323H19.8399Z" fill="#111212"/>
<path d="M12.2256 5.51709V12.7214H5.02148V12.8635H12.2256H12.3674V12.7214V5.51709H12.2256Z" fill="#414141"/>
<path d="M12.2143 20.402V13.2844H5.08203V13.144H12.2143H12.3547V13.2844V20.402H12.2143Z" fill="#111212"/>
<path d="M12.7844 20.402V13.2844H19.902V13.144H12.7844H12.6445V13.2844V20.402H12.7844Z" fill="#414141"/>
<path d="M12.7844 5.58057V12.6981H19.902V12.8383H12.7844H12.6445V12.6981V5.58057H12.7844Z" fill="#111212"/>
</g>
<defs>
<clipPath id="clip0_1101_568">
<rect width="25" height="25" fill="white" transform="translate(0 0.5)"/>
</clipPath>
</defs>
</svg>
