<svg width="25" height="24" viewBox="0 0 25 24" fill="none" xmlns="http://www.w3.org/2000/svg">
<g>
<path fill-rule="evenodd" clip-rule="evenodd" d="M2.25 12C2.25 6.47715 6.72715 2 12.25 2C17.7728 2 22.25 6.47715 22.25 12C22.25 17.5228 17.7728 22 12.25 22C10.4569 22 8.7716 21.5272 7.31482 20.6992L3.56622 21.9487C3.20689 22.0685 2.81072 21.9749 2.54289 21.7071C2.27506 21.4393 2.18154 21.0431 2.30131 20.6838L3.55085 16.9352C2.7228 15.4784 2.25 13.7931 2.25 12ZM12.25 4C7.83172 4 4.25 7.58172 4.25 12C4.25 13.5758 4.70458 15.0424 5.48937 16.2793C5.65044 16.5332 5.68874 16.846 5.59367 17.1313L4.83114 19.4189L7.11874 18.6563C7.40396 18.5613 7.71683 18.5996 7.9707 18.7606C9.20764 19.5454 10.6742 20 12.25 20C16.6683 20 20.25 16.4183 20.25 12C20.25 7.58172 16.6683 4 12.25 4ZM7.25 12C7.25 11.4477 7.69771 11 8.25 11H8.252C8.80428 11 9.252 11.4477 9.252 12V12.002C9.252 12.5543 8.80428 13.002 8.252 13.002H8.25C7.69771 13.002 7.25 12.5543 7.25 12.002V12ZM11.25 12C11.25 11.4477 11.6977 11 12.25 11H12.252C12.8043 11 13.252 11.4477 13.252 12V12.002C13.252 12.5543 12.8043 13.002 12.252 13.002H12.25C11.6977 13.002 11.25 12.5543 11.25 12.002V12ZM15.25 12C15.25 11.4477 15.6977 11 16.25 11H16.252C16.8043 11 17.252 11.4477 17.252 12V12.002C17.252 12.5543 16.8043 13.002 16.252 13.002H16.25C15.6977 13.002 15.25 12.5543 15.25 12.002V12Z" fill="white"/>
</g>
</svg>
