<svg width="74" height="26" viewBox="0 0 74 26" fill="none" xmlns="http://www.w3.org/2000/svg">
<g clip-path="url(#clip0_966_5527)">
<path d="M0.912964 12.9994C0.912964 19.9034 17.0443 25.4998 36.9439 25.4998C56.842 25.4998 72.9719 19.9034 72.9719 12.9994C72.9719 6.09536 56.842 0.499756 36.9439 0.499756C17.0443 0.499756 0.912964 6.09536 0.912964 12.9994ZM2.18002 12.9994C2.18002 6.69278 17.7432 1.58177 36.9432 1.58177C56.1432 1.58177 71.7055 6.69278 71.7055 12.9994C71.7055 19.306 56.1432 24.4193 36.9432 24.4193C17.7432 24.4193 2.18078 19.306 2.18002 12.9994Z" fill="#414141"/>
<path d="M57.3342 8.75995C57.1914 8.75995 57.1184 8.77736 57.0508 8.90911C56.829 9.33238 54.1325 13.3606 53.6312 14.1428C53.5469 14.2617 53.4428 14.245 53.4314 14.1095C53.3805 13.6446 52.9779 13.1115 52.3436 12.8548C51.8613 12.6602 51.3874 12.6239 50.8974 12.6882C50.0102 12.8071 49.2202 13.2743 48.526 13.8005C47.4777 14.5933 46.5753 15.6223 45.4086 16.3818C44.7728 16.7952 43.9001 17.1571 43.3183 16.6188C42.7904 16.1312 42.8496 15.0476 43.6562 14.2094C43.7413 14.1208 43.8447 14.1935 43.8287 14.273C43.752 14.6531 43.8462 15.0294 44.134 15.2937C44.4873 15.6079 44.9909 15.6435 45.4223 15.4338C45.932 15.1824 46.2312 14.697 46.3186 14.1443C46.4538 13.2894 45.793 12.5353 44.9666 12.4747C44.2959 12.4278 43.6518 12.6602 43.0243 13.1766C42.7106 13.4363 42.5314 13.6287 42.2602 14.0148C42.1934 14.1087 42.0915 14.1186 42.0953 13.9792C42.1265 12.8836 41.6722 12.2687 40.7638 12.2468C40.0596 12.2301 39.3054 12.6125 38.7182 13.0782C38.0748 13.5938 37.5112 14.2753 36.9096 14.9174C36.8344 14.9969 36.7684 14.9931 36.7471 14.8409C36.7296 14.1148 36.5458 13.4121 36.2093 12.9131C36.09 12.7397 35.8394 12.6534 35.6282 12.7708C35.531 12.823 35.1923 12.979 34.9454 13.1774C34.8239 13.2781 34.7752 13.4235 34.8299 13.6097C35.155 14.6925 35.0844 15.926 34.6423 16.9656C34.2374 17.9189 33.4498 18.7798 32.5246 19.0698C31.9146 19.2629 31.2811 19.169 30.8891 18.6306C30.3506 17.8871 30.5686 16.5938 31.3715 15.5201C32.0802 14.5751 33.1042 13.9747 34.1266 13.5878C34.2473 13.5416 34.2724 13.4643 34.2375 13.3629C34.182 13.1955 34.0931 12.9676 34.0574 12.8631C33.964 12.6148 33.7004 12.5739 33.3799 12.6095C32.6377 12.695 31.9678 12.9495 31.3055 13.3023C29.5721 14.2268 28.7039 16.0183 28.3233 16.9754C28.1395 17.4365 27.983 17.7228 27.7801 17.9779C27.5082 18.3209 27.1642 18.6314 26.5367 19.1811C26.4813 19.2311 26.4387 19.3356 26.4858 19.4332C26.5504 19.5642 26.877 20.0246 26.9689 20.0655C27.0707 20.1155 27.19 20.0458 27.2371 20.0117C27.6761 19.7157 28.201 19.2455 28.4585 18.9267C28.5474 18.8176 28.64 18.8638 28.6886 19.0289C28.9287 19.8807 29.5561 20.5781 30.4243 20.8689C32.0134 21.4027 33.6609 20.6296 34.9059 19.2833C35.6966 18.4277 35.9814 17.8772 36.286 17.5032C36.7987 16.8694 37.812 15.4497 39.019 14.5395C39.4611 14.2018 39.9852 13.9467 40.248 14.1163C40.4592 14.2526 40.5291 14.5706 40.1888 15.1854C38.959 17.4259 37.149 20.0556 36.8163 20.6947C36.7547 20.8045 36.8071 20.8923 36.9248 20.8923C37.569 20.8885 38.2063 20.8901 38.7912 20.8901C38.8884 20.8855 38.9317 20.8416 38.9811 20.7719C39.9245 19.2992 40.814 17.8969 41.7657 16.4469C41.8196 16.3628 41.8675 16.4287 41.8705 16.4658C41.8902 16.8028 41.9731 17.2631 42.1743 17.5653C42.5336 18.1241 43.0441 18.3633 43.6107 18.3671C44.0604 18.3724 44.2883 18.3043 44.7729 18.1241C45.1686 17.9772 45.4861 17.7864 45.7292 17.6114C45.8704 17.5138 45.8956 17.6781 45.8925 17.7038C45.6738 18.8729 45.9441 20.2586 47.1101 20.8333C48.5062 21.5185 50.0391 20.5546 50.9217 19.6854C51.0076 19.6013 51.0994 19.6104 51.1086 19.7906C51.126 20.1223 51.2788 20.5175 51.5537 20.7939C52.292 21.5329 53.7854 21.2399 55.2817 20.0852C56.2426 19.3462 57.2483 18.3005 58.1561 17.1935C58.1902 17.1511 58.2152 17.0814 58.1469 17.0118C58.0086 16.8686 57.8081 16.7036 57.6714 16.5756C57.6091 16.5234 57.518 16.5378 57.4641 16.5786C56.5336 17.4608 55.6949 18.4671 54.4834 19.3C54.0755 19.5847 53.4238 19.8133 53.1313 19.4188C53.0174 19.2644 53.0311 19.0531 53.1435 18.7745C53.4968 17.8969 59.088 9.41037 59.3781 8.90911C59.429 8.82204 59.3782 8.75843 59.2658 8.75843C58.69 8.75843 57.935 8.75995 57.3356 8.75995H57.3342ZM48.4683 19.1894C48.1812 19.041 48.0558 18.6397 48.0626 18.3164C48.0778 17.4017 48.4835 16.4643 49.2355 15.5413C50.1538 14.4169 51.1679 13.8308 51.834 14.1519C52.5222 14.479 52.3019 15.274 51.9943 15.8979C51.9722 15.9472 51.97 15.9873 51.9821 16.0274C51.9927 16.0918 52.0778 16.1546 52.1606 16.1842C52.1902 16.1955 52.2069 16.2167 52.1735 16.2841C51.9357 16.7922 51.717 17.086 51.4193 17.5266C51.1458 17.934 50.8367 18.2528 50.4622 18.5587C50.0269 18.9168 49.461 19.3015 48.9286 19.3015C48.7713 19.3015 48.6156 19.2682 48.4683 19.1894Z" fill="#414141"/>
<path d="M27.609 3.61329C27.075 3.61329 26.5395 3.63373 25.9994 3.67689C22.5623 3.96614 19.293 5.89469 19.2854 8.82197C19.2854 10.3076 20.342 11.51 21.9828 11.4577C23.9113 11.3919 25.4936 9.85326 26.323 7.91183C26.6375 7.17509 26.0541 6.86919 25.7769 7.29397C25.2816 8.05797 24.5851 8.65009 23.8308 9.01884C22.9231 9.46179 21.9539 9.34216 21.6607 8.60693C21.2475 7.5711 22.1066 6.0219 24.0671 5.29197C26.8996 4.24706 29.8627 4.93912 32.7126 5.47294C32.7537 5.47294 32.9056 5.55699 32.7704 5.62665C32.2607 5.90378 31.7586 6.13017 30.9755 6.8018C30.4134 7.2811 29.6781 7.91865 29.1092 8.6145C28.5455 9.29976 28.1453 9.91156 27.6166 10.5877C27.5422 10.6869 27.4518 10.6816 27.4533 10.6816C26.1635 10.8989 24.8996 11.0436 23.7435 11.8454C23.5042 12.0097 23.4009 12.302 23.546 12.5254C23.6766 12.7238 23.9736 12.7442 24.1795 12.5943C24.898 12.0582 25.6387 11.8068 26.4871 11.7833C26.5244 11.7856 26.541 11.7924 26.5517 11.8136C26.5608 11.8265 26.5517 11.8537 26.5395 11.8742C25.268 13.6309 24.9505 14.0284 23.9949 15.1172C23.5058 15.6768 23.025 16.1493 22.4872 16.6414C20.3178 18.6502 17.9827 18.6177 17.1457 17.3562C16.6466 16.5998 16.712 15.807 17.0402 15.1475C17.4427 14.3411 18.2585 13.7497 18.9368 13.4045C19.189 13.2757 19.2611 12.9554 19.0089 12.6639C18.8494 12.4724 18.4591 12.4383 18.1712 12.4913C17.2817 12.6556 16.2311 13.325 15.6106 14.1314C14.9117 15.0362 14.5624 16.1341 14.6793 17.3661C14.8898 19.5907 16.7265 20.8756 18.8115 20.8605C20.4712 20.8468 22.0351 20.3456 23.9144 18.4428C25.6682 16.6672 27.2657 14.0163 28.7613 11.5577C28.8077 11.4782 28.841 11.4358 29.0689 11.4078C30.007 11.2912 31.3925 11.1571 32.279 11.1064C32.4772 11.095 32.5175 11.0981 32.5957 11.1957C32.8274 11.4865 33.1752 11.7334 33.4525 11.8833C33.5877 11.9575 33.6523 11.9931 33.7594 11.9961C33.8908 11.9991 33.9941 11.9279 34.0587 11.853C34.1529 11.7493 34.1786 11.616 34.1293 11.5289C34.0768 11.4388 33.4571 11.0958 33.4381 10.958C33.4244 10.8709 33.5193 10.8512 33.5193 10.8512C33.9743 10.7089 34.4476 10.4158 34.7355 9.8684C35.0173 9.32853 35.0628 8.60844 34.5463 8.20865C34.0944 7.85732 33.41 7.91335 32.8646 8.40097C32.3321 8.87497 32.1536 9.56477 32.2273 10.169C32.2395 10.2735 32.2364 10.3098 32.0913 10.3212C31.2702 10.3856 30.4803 10.409 29.6007 10.4552C29.5422 10.4598 29.5239 10.4212 29.5581 10.3795C30.5699 8.62586 32.0823 7.37726 33.7541 6.14759C33.8642 6.06506 33.8308 5.90757 33.8262 5.77657C36.8448 6.43078 39.7624 7.64682 42.8956 7.62183C44.19 7.61047 45.4304 7.41512 46.6146 6.76621C47.6575 6.19908 48.0806 5.67511 48.111 5.13069C48.1361 4.75361 47.874 4.51662 47.4995 4.59688C44.3343 5.32226 41.3165 5.31393 38.1665 4.93383C34.5949 4.50223 31.1669 3.6148 27.6135 3.6148C27.6135 3.6148 27.6136 3.6148 27.6044 3.6148L27.609 3.61329ZM33.0629 9.93352C33.0173 9.60036 33.1259 9.15286 33.4836 8.83787C33.6629 8.67886 33.9053 8.64252 34.0549 8.77049C34.2212 8.91284 34.1429 9.26644 33.9743 9.51252C33.7913 9.78284 33.4776 10.0168 33.1935 10.0736C33.1844 10.0751 33.1775 10.0766 33.1699 10.0766C33.1221 10.0759 33.0834 10.0426 33.0629 9.93352Z" fill="#414141"/>
</g>
<defs>
<clipPath id="clip0_966_5527">
<rect width="73" height="25" fill="white" transform="translate(0.912842 0.5)"/>
</clipPath>
</defs>
</svg>
