<svg width="101" height="18" viewBox="0 0 101 18" fill="none" xmlns="http://www.w3.org/2000/svg">
<g clip-path="url(#clip0_1101_639)">
<path fill-rule="evenodd" clip-rule="evenodd" d="M22.203 8.71393C23.2547 6.34358 24.2492 4.10395 24.6683 3.26003L24.9211 2.72435C24.9641 2.64199 24.9641 2.54528 24.9211 2.47352C24.8798 2.40728 24.8118 2.36775 24.7292 2.36775L18.5694 2.36599L18.4172 2.61505C17.6146 3.82441 16.6113 5.50871 15.5845 7.36834C13.6083 7.39704 12.6299 7.46329 11.2073 7.60836C12.2214 5.31507 12.8591 3.92289 13.3288 2.89791L13.4489 2.63824C13.4776 2.5773 13.4738 2.50576 13.4398 2.44835C13.4111 2.39646 13.3593 2.36422 13.2895 2.35693H13.2394L7.28025 2.36223L7.11729 2.59518C6.61915 3.29933 4.85448 5.87746 3.09841 9.47173C2.07012 11.5787 0.919718 14.9811 0.908898 15.0153C0.70112 15.6315 0.543465 16.1853 0.543465 16.1906L0.501953 16.3395H7.79782L7.85677 15.9541C7.85991 15.9394 7.86437 15.9207 7.86974 15.8982L7.88194 15.8466C8.40879 13.435 9.62344 12.1755 10.5497 11.5447C11.9132 10.6148 12.983 10.5539 14.0131 10.5073C13.0795 12.4943 12.0512 15.3986 11.9615 15.6746L11.7215 16.3392H18.8041L18.8328 16.271C18.8436 16.2496 19.813 14.0996 21.8428 9.52715L22.203 8.71393ZM99.4003 12.9583C99.3627 12.8848 99.2892 12.8399 99.2104 12.8399H90.4203C89.0785 12.8203 88.2416 12.7145 87.9371 12.6286C87.6989 12.5624 87.6145 12.4853 87.586 12.4332C87.5611 12.3813 87.5699 12.3257 87.5969 12.2469C87.6459 12.1015 87.735 11.8882 87.8475 11.619L87.8479 11.618L87.848 11.6177L87.8943 11.5069C88.3154 10.5018 89.0158 8.82128 89.6018 6.59953C89.8043 5.83444 90.3775 4.66263 91.9704 3.42656L91.9935 3.4069C92.119 3.31019 92.3502 3.1596 92.6511 2.98053C92.7801 2.90523 92.8375 2.75486 92.7964 2.60781C92.7569 2.46274 92.6315 2.36426 92.4846 2.36426H85.3016L85.2729 2.43955C85.2729 2.43955 85.1278 2.81757 85.0795 2.93946C84.8913 3.40006 83.9756 5.7077 83.0083 8.14981C82.6513 9.04623 82.2854 9.96764 81.9406 10.8359L81.9379 10.8427C81.6435 11.584 81.3645 12.2865 81.1198 12.9013C80.8581 13.5554 80.6486 14.4799 81.1215 15.1571C81.6554 15.9292 82.7716 16.3377 84.3501 16.3377H96.9994L99.3788 13.1826C99.429 13.1177 99.438 13.0316 99.4003 12.9583ZM43.3809 2.36407L43.8574 2.3623C43.9236 2.3623 43.9881 2.39432 44.0254 2.4482C44.0649 2.50185 44.0738 2.57185 44.0559 2.63456L43.9126 3.08257C43.7226 3.59975 43.0602 5.52607 42.3794 7.506L42.3785 7.50868L42.3783 7.50919L42.2069 8.00786C41.888 8.93768 41.5742 9.84983 41.3163 10.595C40.7853 12.1351 40.4427 13.138 40.1755 13.9202L39.9672 14.5296C39.7897 15.0547 39.6411 15.4901 39.4726 15.9809L39.3545 16.3411H33.5692L33.7822 15.508L33.8245 15.3554C33.9468 14.9128 34.1242 14.2705 34.3413 13.6141H33.3596C31.74 13.6481 29.5004 14.1229 28.1548 15.1066C27.4539 15.62 27.0562 16.2502 27.0359 16.2824L27.0359 16.2824L27.0351 16.2837L26.9993 16.3411H19.6533L20.4113 15.4219C21.221 14.4293 23.6899 11.4085 26.4223 8.88756C28.8304 6.66757 31.088 4.91548 34.2843 3.57519C36.8143 2.51466 40.3026 2.3676 43.3809 2.36407ZM37.5249 6.34252L37.5253 6.34172C37.581 6.23574 37.6335 6.13566 37.6812 6.04225C37.031 6.19638 35.9397 6.52074 34.8379 7.45232C33.5999 8.49872 32.5965 9.60583 31.7687 10.5752H35.4416C36.0077 9.22605 36.8426 7.63846 37.3999 6.58146C37.4428 6.49892 37.4846 6.41918 37.5249 6.34252ZM82.0812 2.63951C82.1028 2.54103 82.0703 2.47655 82.0399 2.4388C82.0112 2.40303 81.954 2.35997 81.8482 2.35997H81.4093C78.6858 2.35997 75.5577 2.49245 72.9902 3.47084C70.2446 4.5176 67.7859 6.68105 65.612 8.59383L65.5923 8.6112C65.3754 8.80109 65.1606 8.98922 64.9508 9.17205C63.0778 10.8089 60.7763 12.9977 59.0927 14.5987L59.0847 14.6063C58.9651 14.7197 58.8495 14.8296 58.7382 14.9354L58.738 14.9355C58.5259 15.1371 58.3293 15.324 58.1496 15.4933L57.2717 16.3372H65.0422L65.078 16.2888C65.0851 16.278 65.8985 15.1744 66.7782 14.5778C68.1006 13.6785 69.5858 13.6102 71.5406 13.6102H72.5026C72.3546 13.958 72.1814 14.3527 72.0231 14.7135L71.8934 15.0095L71.7691 15.2925C71.714 15.4179 71.6638 15.5322 71.6209 15.6295L71.3182 16.3372H77.4047L77.4334 16.2637C77.4387 16.2546 77.8132 15.316 78.272 14.1137C78.5229 13.4508 78.7989 12.7036 79.0639 11.9816C79.1634 11.7138 79.2606 11.4497 79.3543 11.1949L79.3556 11.1915L79.4169 11.0248C80.4759 8.16892 81.4863 4.68218 81.9164 3.19329L82.0812 2.63951ZM75.7959 5.98472C75.4932 6.74804 74.9324 8.03269 74.4307 9.1758C74.2068 9.68652 73.9953 10.1721 73.8232 10.5733H69.8726C70.5677 9.77771 71.5818 8.66861 72.8325 7.57761C74.3214 6.27684 75.2028 6.07436 75.7959 5.98472ZM67.4101 2.3584C67.4942 2.3584 67.5965 2.40146 67.634 2.4964C67.6557 2.54476 67.6715 2.645 67.5609 2.75651L53.7667 16.2893C53.7096 16.3429 53.6396 16.3429 53.6038 16.3429H47.168C47.0944 16.3429 47.0353 16.2857 47.03 16.214L46.2953 2.59709C46.2916 2.53615 46.313 2.4752 46.3543 2.43038C46.3974 2.38556 46.4565 2.35862 46.5192 2.35862H51.8137C51.9283 2.35862 52.0233 2.44628 52.0359 2.5611L52.9836 9.47872C53.4603 9.03976 54.0425 8.49856 54.6535 7.92888L54.704 7.88176C55.323 7.30462 55.9705 6.70085 56.5652 6.15316C57.9278 4.89716 59.3926 3.50827 60.1358 2.80356L60.1915 2.75077C60.6053 2.3584 60.6053 2.3584 60.6537 2.3584H67.4101Z" fill="#414141"/>
</g>
<defs>
<clipPath id="clip0_1101_639">
<rect width="100" height="17.4825" fill="white" transform="translate(0.162109 0.258789)"/>
</clipPath>
</defs>
</svg>
