<svg width="41" height="22" viewBox="0 0 41 22" fill="none" xmlns="http://www.w3.org/2000/svg">
<g clip-path="url(#clip0_1101_610)">
<path d="M20.471 21.5C31.7785 21.5 40.9464 16.7987 40.9464 11.0022C40.9464 5.20135 31.7785 0.5 20.471 0.5C9.1679 0.5 0 5.20135 0 11.0022C0 16.7987 9.1679 21.5 20.471 21.5ZM24.3267 16.3485C23.9852 17.1407 23.3974 18.8333 22.0487 19.5086C21.6381 19.7122 21.1324 19.8075 20.6828 19.8247C20.579 19.8247 20.5056 19.8247 20.4752 19.8247C16.6974 19.8247 13.1789 19.2965 10.2354 18.4004C10.2134 18.391 10.1447 18.3658 10.1231 18.357C9.85081 18.2663 9.71242 18.1406 9.71242 17.9848C9.71242 17.8507 9.78585 17.7467 9.88089 17.6515C9.92417 17.6125 9.9847 17.5607 10.0669 17.4868C10.7498 16.9198 12.7943 15.4349 16.65 13.9544C18.0029 13.4392 19.6973 12.7942 21.4694 12.4176C22.5068 12.2012 26.3624 11.608 24.3266 16.3483L24.3267 16.3485ZM34.6702 5.76395C34.7436 5.63829 34.8389 5.5302 35.0159 5.5214C35.111 5.51198 35.2409 5.53396 35.4396 5.65993C37.8428 7.14045 39.2692 8.99328 39.2692 10.9976C39.2692 14.6166 34.6226 17.7291 27.9747 19.0884C27.5511 19.1751 27.2659 19.1707 27.1708 19.0633C27.1017 18.9983 27.0845 18.8815 27.1708 18.7387C27.2097 18.6652 27.2573 18.6001 27.3479 18.4917C30.9658 14.219 33.7235 7.91596 34.5059 6.09776C34.5664 5.97211 34.6226 5.84683 34.6703 5.76452L34.6702 5.76395ZM16.6803 5.6304C17.0218 4.8382 17.6096 3.14548 18.9582 2.47451C19.3689 2.27094 19.8746 2.17141 20.3241 2.15853C20.4279 2.15538 20.5013 2.15853 20.5274 2.15853C24.3095 2.15853 27.8236 2.68232 30.7715 3.58275C30.7935 3.59217 30.8622 3.61729 30.8838 3.62608C31.1561 3.71687 31.2944 3.84249 31.2944 3.99834C31.2944 4.13248 31.221 4.23208 31.126 4.32736C31.0827 4.37071 31.0222 4.42254 30.94 4.49197C30.2614 5.06339 28.2125 6.54391 24.3569 8.02443C22.9997 8.5439 21.3096 9.18458 19.5418 9.56121C18.5 9.78205 14.6444 10.3707 16.6803 5.6305V5.6304ZM12.9673 2.90755C13.3952 2.82524 13.6762 2.82523 13.7799 2.93266C13.8405 3.00178 13.8577 3.11456 13.7768 3.25737C13.7335 3.33088 13.6862 3.40034 13.5996 3.49992C9.98174 7.77696 7.22405 14.0756 6.43734 15.8981C6.38119 16.0238 6.32066 16.1491 6.27298 16.2315C6.20366 16.3571 6.10454 16.4652 5.93149 16.474C5.83645 16.4834 5.70249 16.4552 5.50356 16.3355C3.10028 14.8549 1.67391 13.0021 1.67391 10.9978C1.67391 7.37875 6.3205 4.26626 12.9684 2.90697" fill="#414141"/>
</g>
<defs>
<clipPath id="clip0_1101_610">
<rect width="41" height="21" fill="white" transform="translate(0 0.5)"/>
</clipPath>
</defs>
</svg>
