<svg width="49" height="26" viewBox="0 0 49 26" fill="none" xmlns="http://www.w3.org/2000/svg">
<g clip-path="url(#clip0_1101_614)">
<path fill-rule="evenodd" clip-rule="evenodd" d="M24.6032 22.6393C12.2293 22.6393 2.19918 18.351 2.19918 13.0612C2.19918 7.77179 12.2293 3.48318 24.6032 3.48318C36.9774 3.48318 47.008 7.77187 47.008 13.0612C47.008 18.3509 36.9774 22.6393 24.6032 22.6393ZM24.5001 0.5C10.9685 0.5 0 6.0963 0 12.9997C0 19.9032 10.9685 25.5 24.5001 25.5C38.0315 25.5 49 19.9032 49 12.9997C49.0001 6.0963 38.0315 0.5 24.5001 0.5Z" fill="#414141"/>
<path fill-rule="evenodd" clip-rule="evenodd" d="M32.6004 8.03283C32.6631 7.85308 32.5352 7.66544 32.3772 7.66544L32.0382 7.66544C32.0105 7.66544 31.9874 7.64375 31.9874 7.6158V7.02158C31.9874 6.99269 32.0105 6.9673 32.0382 6.9673L36.6293 6.96729C36.7667 6.96729 36.8981 6.99571 36.9437 7.13581L40.9266 18.6881C40.931 18.7081 40.9348 18.7326 40.9348 18.7536C40.9349 18.8766 40.837 18.9751 40.7147 18.9751L40.7199 18.9767L37.8457 18.979C37.7083 18.979 37.56 18.8645 37.515 18.724L35.0532 11.2699C35.0361 11.2055 34.9962 11.1511 34.9269 11.1511C34.8572 11.1511 34.817 11.1999 34.8013 11.2699L32.3406 18.724C32.2945 18.8645 32.1463 18.979 32.0083 18.979H29.1432C29.0203 18.979 28.9199 18.8772 28.9199 18.7542C28.9199 18.7332 28.9213 18.7125 28.9279 18.692L32.6004 8.03283Z" fill="#414141"/>
<path fill-rule="evenodd" clip-rule="evenodd" d="M26.4486 18.7273C26.4486 18.8667 26.3362 18.979 26.1976 18.979L23.2806 18.979C23.1422 18.979 23.0296 18.8667 23.0296 18.7273L23.0322 7.91157C23.0322 7.77216 22.9217 7.66016 22.783 7.66016L22.3942 7.66318C22.3666 7.66318 22.3438 7.63971 22.3438 7.61245V7.01848C22.3438 6.99044 22.3666 6.96729 22.3942 6.96729L26.1976 6.96883C26.3361 6.96883 26.4485 7.08183 26.4485 7.2214L26.4486 18.7273Z" fill="#414141"/>
<path fill-rule="evenodd" clip-rule="evenodd" d="M20.5668 18.979H17.2115C17.0721 18.979 16.8772 18.8642 16.7761 18.7242L13.4263 14.1494C13.3696 14.0719 13.3315 14.0205 13.2325 14.0205C13.1467 14.0204 13.0945 14.0856 13.0945 14.1738L13.0965 18.7273C13.0965 18.8667 12.984 18.979 12.8455 18.979L10.0189 18.979C9.88049 18.979 9.76788 18.8667 9.76788 18.7273L9.77044 7.91157C9.77044 7.77216 9.65994 7.66016 9.52131 7.66016L9.13253 7.66318C9.10486 7.66318 9.08203 7.63971 9.08203 7.61245V7.01848C9.08203 6.99044 9.10486 6.96729 9.13253 6.96729L12.8454 6.96883C12.984 6.96883 13.0964 7.08183 13.0964 7.2214L13.0964 11.041C13.0964 11.1287 13.1487 11.1946 13.2347 11.1946C13.3319 11.1887 13.3836 11.1259 13.4279 11.0646L16.2053 7.22395C16.3077 7.08338 16.5026 6.97092 16.6417 6.97092H19.8545C19.976 6.97092 20.0703 7.07029 20.0703 7.1929C20.0703 7.23813 20.0596 7.28096 20.0368 7.31697L16.4835 12.451C16.4445 12.5028 16.4245 12.5462 16.4245 12.6068C16.4245 12.6675 16.4393 12.7022 16.4789 12.7539L20.7312 18.6089C20.828 18.7422 20.7601 18.979 20.5668 18.979Z" fill="#414141"/>
</g>
<defs>
<clipPath id="clip0_1101_614">
<rect width="49" height="25" fill="white" transform="translate(0 0.5)"/>
</clipPath>
</defs>
</svg>
