<svg width="48" height="26" viewBox="0 0 48 26" fill="none" xmlns="http://www.w3.org/2000/svg">
<g clip-path="url(#clip0_1101_593)">
<path d="M7.85267 5.36831C3.70979 7.4951 1.50391 10.2539 1.50391 13.0199C1.50391 15.7852 3.71131 18.5417 7.85708 20.6662C11.95 22.7638 17.6738 24.0899 24.0503 24.0899C30.4265 24.0899 36.1503 22.7614 40.2434 20.6626C44.3889 18.5369 46.5959 15.781 46.5967 13.0215L7.85267 5.36831ZM7.85267 5.36831C11.943 3.26852 17.664 1.93994 24.0402 1.93994M7.85267 5.36831L24.0402 1.93994M24.0402 1.93994C30.4164 1.93994 36.1402 3.26851 40.2344 5.36848M24.0402 1.93994L40.2344 5.36848M40.2344 5.36848C44.3814 7.49547 46.5925 10.2549 46.5967 13.0213L40.2344 5.36848Z" stroke="#414141" stroke-width="2"/>
<path d="M37.3145 8.12012H33.6858L33.2423 9.43012H35.5909L32.9096 10.4001L32.7383 10.9301L36.8508 9.52012L37.3145 8.12012Z" fill="#414141"/>
<path d="M14.5765 10.32L14.0826 11.72H10.5547C10.5547 11.72 10.6353 11.69 10.7563 11.45C10.8672 11.21 12.5001 6.48997 12.5001 6.48997C12.5001 6.48997 12.7218 5.99997 12.4698 5.86997H14.516C14.516 5.86997 14.3951 5.83997 14.2036 6.33997C14.0927 6.62997 12.7218 10.41 12.7218 10.41H14.1935C14.1935 10.42 14.5261 10.46 14.5765 10.32Z" fill="#414141"/>
<path d="M20.3906 11.7101H22.0538C22.0538 11.7101 21.9429 11.5301 22.0135 11.3401C22.1143 11.0701 22.9912 8.58014 22.9912 8.58014L23.3742 11.7101H24.8862L26.8619 6.15014C26.8619 6.15014 26.9425 5.89014 27.0534 5.89014H25.4507C25.4507 5.89014 25.5011 6.08014 25.4406 6.23014C25.3801 6.38014 24.4729 8.90014 24.4729 8.90014L24.1202 5.89014H22.3965C22.3965 5.89014 22.4872 6.04014 22.4267 6.20014C22.3763 6.33014 20.6023 11.3901 20.6023 11.3901C20.6023 11.3901 20.4813 11.7101 20.3906 11.7101Z" fill="#414141"/>
<path d="M29.8873 5.88987H27.9923C27.9923 5.88987 28.1334 6.12987 27.952 6.66987C27.7705 7.21987 26.319 11.2699 26.319 11.2699C26.319 11.2699 26.2082 11.6499 26.0469 11.7199H28.3249C28.3249 11.7199 31.0868 11.8299 31.9335 8.81987C31.9335 8.82987 33.0221 5.85987 29.8873 5.88987ZM30.0889 9.07987C29.605 10.2999 28.8894 10.3899 28.5063 10.3899C28.2544 10.3899 28.2443 10.3899 28.2443 10.3899L29.3531 7.14987H29.7764C29.7764 7.14987 30.8751 7.07987 30.0889 9.07987Z" fill="#414141"/>
<path d="M8.01367 16.4296H11.6424L12.0859 15.1196H9.73732L12.4185 14.1496L12.5899 13.6196L8.46726 15.0296L8.01367 16.4296Z" fill="#414141"/>
<path d="M18.3356 15.1997C19.021 12.9397 16.7228 12.9997 16.7228 12.9997H14.3742C14.5456 13.1997 14.4145 13.6097 14.4145 13.6097C14.4145 13.6097 12.953 17.9397 12.8421 18.2797C12.7312 18.6097 12.5195 18.8497 12.5195 18.8497H14.3742C14.3137 18.8497 14.3137 18.6597 14.3137 18.6597L14.979 16.8297C14.979 16.8297 15.8055 18.5197 15.866 18.6397C15.9265 18.7597 15.8963 18.8597 15.8963 18.8597H17.882C17.6905 18.8597 17.499 18.4897 17.499 18.4897L16.5111 16.6497C17.8921 16.6197 18.3356 15.1997 18.3356 15.1997ZM16.7228 14.9997C16.4607 15.5797 15.7652 15.5097 15.7652 15.5097H15.4024L15.7854 14.3397C15.7854 14.3397 15.9971 14.3397 16.1785 14.3397C17.0252 14.3397 16.7228 14.9997 16.7228 14.9997Z" fill="#414141"/>
<path d="M38.858 15.2798C39.5837 12.9098 37.2654 13.0198 37.2654 13.0198H34.937C35.1083 13.2198 34.9773 13.6298 34.9773 13.6298C34.9773 13.6298 33.4552 17.9798 33.3444 18.3098C33.2335 18.6398 33.0117 18.8598 33.0117 18.8598H34.947C34.8059 18.8598 34.9067 18.4998 34.9067 18.4998L35.5014 16.8298C35.5014 16.8298 36.2977 18.5198 36.3582 18.6398C36.4187 18.7598 36.3884 18.8598 36.3884 18.8598H38.4447C38.2532 18.8598 38.0415 18.4898 38.0415 18.4898L37.0537 16.6498C38.4346 16.6498 38.858 15.2798 38.858 15.2798ZM37.2049 15.0298C36.9932 15.5898 36.2977 15.5398 36.2977 15.5398H35.9349L36.3179 14.3798H36.832C36.832 14.3798 37.4569 14.3598 37.2049 15.0298Z" fill="#414141"/>
<path d="M22.0244 12.8501C20.21 12.8501 19.0206 14.2801 18.7182 16.0501C18.436 17.6801 19.323 18.9901 20.7946 18.9901C22.8408 18.9901 24.0706 16.9001 24.0706 15.4001C24.0706 13.8301 23.4456 12.8501 22.0244 12.8501ZM22.2965 16.1001C22.0042 17.3201 21.4397 17.7001 20.9257 17.6001C20.2302 17.4701 20.3511 16.3501 20.462 15.8301C20.7039 14.7001 21.3188 14.1601 21.7724 14.2101C21.9236 14.2401 22.74 14.2501 22.2965 16.1001Z" fill="#414141"/>
<path d="M24.5547 13.02C24.5547 13.02 24.6958 13.1 24.6958 13.47V18.53C24.6958 18.53 24.6756 18.81 24.5748 18.87H26.107C26.107 18.87 26.107 18.75 26.2582 18.55C26.4094 18.35 29.5744 13.95 29.5744 13.95C29.5744 13.95 30.2901 13.03 30.4816 13.03H28.2943C28.2943 13.03 28.4657 13.15 28.3346 13.36C28.2036 13.58 26.2582 16.59 26.2582 16.59L26.2783 13.55C26.2783 13.55 26.2783 13.06 26.4598 13.02H24.5547Z" fill="#414141"/>
<path d="M33.7773 14.4L34.2712 13.02H30.5719C30.5719 13.02 30.7029 13.14 30.5316 13.63C30.3602 14.12 28.8583 18.31 28.8583 18.31C28.8583 18.31 28.5862 18.86 28.5156 18.86H32.3258L32.7794 17.46C32.7794 17.46 32.7189 17.54 32.3661 17.54H30.7533L31.0961 16.6H32.356C32.356 16.6 32.6181 16.58 32.6786 16.66L33.1927 15.17C33.1927 15.17 33.1523 15.31 32.8096 15.31H31.6L31.9629 14.27H33.4951C33.4951 14.26 33.6967 14.23 33.7773 14.4Z" fill="#414141"/>
<path d="M20.1993 11.7199C20.1993 11.7199 20.0683 11.6399 20.038 11.4099L19.8062 6.27988C19.8062 6.27988 19.7961 5.94988 19.9473 5.87988H18.143C18.143 5.87988 18.2741 6.03988 18.0321 6.40988C17.7902 6.77988 14.7058 11.5199 14.7058 11.5199C14.7058 11.5199 14.6453 11.6399 14.4941 11.7099H16.3186C16.3186 11.7099 16.3085 11.5599 16.3589 11.4699C16.4496 11.2999 16.6714 10.8899 16.6714 10.8899H18.5059V11.3999C18.5059 11.3999 18.516 11.5799 18.3849 11.7099C18.3749 11.7199 20.1993 11.7199 20.1993 11.7199ZM17.4475 9.57988L18.4555 7.86988L18.4656 9.57988H17.4475Z" fill="#414141"/>
</g>
<defs>
<clipPath id="clip0_1101_593">
<rect width="48" height="25" fill="white" transform="translate(0 0.5)"/>
</clipPath>
</defs>
</svg>
