<svg width="143" height="25" viewBox="0 0 143 25" fill="none" xmlns="http://www.w3.org/2000/svg">
<g clip-path="url(#clip0_1425_11788)">
<path fill-rule="evenodd" clip-rule="evenodd" d="M38.1922 10.0985C39.1214 9.69527 39.586 8.87126 39.586 7.62648C39.586 6.31157 39.2003 5.47003 38.4288 5.10185C37.8766 4.83887 36.5529 4.703 34.4578 4.69423C32.3715 4.68547 31.0741 4.55397 30.5657 4.29976C30.0134 4.02801 29.7373 3.55026 29.7373 2.86651C29.7373 2.06879 30.2413 1.59981 31.2494 1.45955C31.5913 1.40695 32.4811 1.38066 33.9187 1.38066C35.6456 1.38066 36.7151 1.499 37.1271 1.73568C37.5742 1.9899 37.7977 2.54654 37.7977 3.40562H39.2967C39.2967 2.12577 39.0162 1.26231 38.4551 0.815245C37.7626 0.271749 36.2505 0 33.9187 0C31.5519 0 30.0178 0.170939 29.3165 0.512815C28.5802 0.88099 28.212 1.66555 28.212 2.86651C28.212 3.97103 28.5232 4.75121 29.1456 5.20705C29.9345 5.77684 31.5256 6.06174 33.9187 6.06174C35.9261 6.06174 37.1008 6.14502 37.4427 6.31157C37.8547 6.50443 38.0607 6.94273 38.0607 7.62648C38.0607 8.2927 37.7626 8.73539 37.1665 8.95454C36.7195 9.1211 35.5229 9.20437 33.5768 9.20437C31.6483 9.20437 30.478 9.08165 30.066 8.8362C29.6277 8.57322 29.4086 7.96398 29.4086 7.00847H27.8701C27.8701 8.40228 28.155 9.31833 28.7248 9.75664C29.4349 10.3089 31.0478 10.585 33.5637 10.585C35.913 10.585 37.4558 10.4229 38.1922 10.0985ZM39.0295 21.0833C39.0295 22.3544 38.7841 23.2749 38.2932 23.8447C37.8724 24.3356 37.1974 24.6336 36.2682 24.7388C35.9 24.7826 34.8963 24.8045 33.2571 24.8045C31.5389 24.8045 30.338 24.7081 29.6542 24.5153C28.8039 24.2786 28.221 23.7921 27.9054 23.0557C27.5898 22.3457 27.432 21.171 27.432 19.5318C27.432 17.8925 27.5898 16.7091 27.9054 15.9815C28.221 15.2539 28.8039 14.7674 29.6542 14.5219C30.3467 14.3291 31.5477 14.2327 33.2571 14.2327C34.9138 14.2327 35.9176 14.2546 36.2682 14.2984C37.1974 14.4036 37.8724 14.6973 38.2932 15.1794C38.7841 15.7492 39.0295 16.674 39.0295 17.9539H37.4911C37.4911 16.823 37.2544 16.1437 36.781 15.9158C36.3865 15.7141 35.2119 15.6133 33.2571 15.6133C31.8019 15.6133 30.8595 15.6615 30.43 15.758C29.8164 15.8982 29.4131 16.2357 29.2203 16.7704C29.0537 17.2526 28.9705 18.173 28.9705 19.5318C28.9705 20.873 29.0581 21.7846 29.2334 22.2668C29.4263 22.8015 29.8339 23.139 30.4563 23.2792C30.8771 23.3757 31.8107 23.4239 33.2571 23.4239C35.1944 23.4239 36.3646 23.3275 36.7679 23.1346C37.25 22.8979 37.4911 22.2142 37.4911 21.0833H39.0295ZM64.6892 19.5318C64.6892 21.1973 64.6103 22.2887 64.4525 22.8059C64.1632 23.7701 63.2866 24.3838 61.8227 24.6468C61.2441 24.7519 60.087 24.8045 58.3513 24.8045C56.6419 24.8045 55.4848 24.7519 54.88 24.6468C53.4073 24.375 52.5263 23.7658 52.237 22.819C52.0792 22.3106 52.0003 21.2148 52.0003 19.5318C52.0003 17.8662 52.0792 16.7704 52.237 16.2445C52.5263 15.2802 53.4029 14.6666 54.8668 14.4036C55.4717 14.2896 56.6332 14.2327 58.3513 14.2327C60.0695 14.2327 61.2266 14.2853 61.8227 14.3905C63.2866 14.6622 64.1632 15.2758 64.4525 16.2313C64.6103 16.7485 64.6892 17.8487 64.6892 19.5318ZM63.1639 19.5318C63.1639 17.6295 62.9623 16.5118 62.559 16.1787C62.1207 15.8018 60.7182 15.6133 58.3513 15.6133C56.6595 15.6133 55.6426 15.644 55.3007 15.7054C54.5907 15.8106 54.1173 16.1218 53.8806 16.639C53.6527 17.1562 53.5388 18.1204 53.5388 19.5318C53.5388 20.9168 53.6571 21.8679 53.8938 22.3851C54.1392 22.9023 54.617 23.2179 55.327 23.3318C55.6777 23.3932 56.6858 23.4239 58.3513 23.4239C60.0344 23.4239 61.0425 23.3976 61.3756 23.345C62.0857 23.231 62.559 22.9198 62.7957 22.4114C63.0412 21.8942 63.1639 20.9343 63.1639 19.5318ZM77.0845 23.8447C77.5754 23.2749 77.8208 22.3544 77.8208 21.0833H76.2824C76.2824 22.2142 76.0413 22.8979 75.5592 23.1346C75.156 23.3275 73.9857 23.4239 72.0484 23.4239C70.602 23.4239 69.6684 23.3757 69.2476 23.2792C68.6252 23.139 68.2176 22.8015 68.0248 22.2668C67.8494 21.7846 67.7618 20.873 67.7618 19.5318C67.7618 18.173 67.845 17.2526 68.0116 16.7704C68.2045 16.2357 68.6077 15.8982 69.2213 15.758C69.6509 15.6615 70.5932 15.6133 72.0484 15.6133C74.0032 15.6133 75.1779 15.7141 75.5723 15.9158C76.0457 16.1437 76.2824 16.823 76.2824 17.9539H77.8208C77.8208 16.674 77.5754 15.7492 77.0845 15.1794C76.6637 14.6973 75.9887 14.4036 75.0595 14.2984C74.7089 14.2546 73.7052 14.2327 72.0484 14.2327C70.339 14.2327 69.138 14.3291 68.4455 14.5219C67.5952 14.7674 67.0123 15.2539 66.6967 15.9815C66.3811 16.7091 66.2233 17.8925 66.2233 19.5318C66.2233 21.171 66.3811 22.3457 66.6967 23.0557C67.0123 23.7921 67.5952 24.2786 68.4455 24.5153C69.1293 24.7081 70.3302 24.8045 72.0484 24.8045C73.6876 24.8045 74.6914 24.7826 75.0595 24.7388C75.9887 24.6336 76.6637 24.3356 77.0845 23.8447ZM142.264 23.8447C142.755 23.2749 143 22.3544 143 21.0833H141.462C141.462 22.2142 141.22 22.8979 140.738 23.1346C140.335 23.3275 139.165 23.4239 137.228 23.4239C135.781 23.4239 134.848 23.3757 134.427 23.2792C133.804 23.139 133.397 22.8015 133.204 22.2668C133.029 21.7846 132.941 20.873 132.941 19.5318C132.941 18.173 133.024 17.2526 133.191 16.7704C133.384 16.2357 133.787 15.8982 134.4 15.758C134.83 15.6615 135.772 15.6133 137.228 15.6133C139.182 15.6133 140.357 15.7141 140.751 15.9158C141.225 16.1437 141.462 16.823 141.462 17.9539H143C143 16.674 142.755 15.7492 142.264 15.1794C141.843 14.6973 141.168 14.4036 140.239 14.2984C139.888 14.2546 138.884 14.2327 137.228 14.2327C135.518 14.2327 134.317 14.3291 133.625 14.5219C132.774 14.7674 132.191 15.2539 131.876 15.9815C131.56 16.7091 131.402 17.8925 131.402 19.5318C131.402 21.171 131.56 22.3457 131.876 23.0557C132.191 23.7921 132.774 24.2786 133.625 24.5153C134.308 24.7081 135.509 24.8045 137.228 24.8045C138.867 24.8045 139.87 24.7826 140.239 24.7388C141.168 24.6336 141.843 24.3356 142.264 23.8447ZM128.148 24.6598H129.687V14.3772H127.438L118.615 23.3975V14.3772H117.09V24.6598H119.404L128.148 15.7316V24.6598ZM115.203 21.6618C115.203 23.6605 114.112 24.6598 111.929 24.6598H103.685V14.3772H111.574C112.574 14.3772 113.354 14.6095 113.915 15.0741C114.528 15.5738 114.835 16.3145 114.835 17.2963C114.835 18.3307 114.445 18.9925 113.665 19.2818C114.173 19.4396 114.559 19.7464 114.822 20.2022C115.076 20.6143 115.203 21.1008 115.203 21.6618ZM113.31 17.2963C113.31 16.2794 112.731 15.771 111.574 15.771H105.21V18.677H111.574C112.135 18.677 112.547 18.5893 112.81 18.414C113.143 18.1948 113.31 17.8223 113.31 17.2963ZM113.665 21.675C113.665 21.1578 113.503 20.7633 113.179 20.4915C112.854 20.211 112.433 20.0708 111.916 20.0708H105.21V23.2791H111.916C113.082 23.2791 113.665 22.7444 113.665 21.675ZM101.321 20.0182C101.803 19.4571 102.044 18.6726 102.044 17.6645C102.044 15.473 101.071 14.3772 99.125 14.3772H90.7359V24.6598H92.2743V20.9123H99.0593C100.059 20.9123 100.812 20.6143 101.321 20.0182ZM99.0461 15.771C100.019 15.771 100.506 16.4022 100.506 17.6645C100.506 18.9093 100.024 19.5316 99.0593 19.5316H92.2743V15.771H99.0461ZM89.0988 24.6598H79.2633V14.3772H89.0988V15.771H80.7886V18.7558H88.8095V20.1365H80.7886V23.2791H89.0988V24.6598ZM46.2576 15.771H50.8598V14.3772H40.117V15.771H44.7192V24.6598H46.2576V15.771ZM22.4557 24.6598C24.6385 24.6598 25.7299 23.6605 25.7299 21.6618C25.7299 21.1008 25.6027 20.6143 25.3485 20.2022C25.0856 19.7464 24.6998 19.4396 24.1914 19.2818C24.9716 18.9925 25.3617 18.3307 25.3617 17.2963C25.3617 16.3145 25.0549 15.5738 24.4412 15.0741C23.8802 14.6095 23.1 14.3772 22.1007 14.3772H14.2112V24.6598H22.4557ZM22.1007 15.771C23.2578 15.771 23.8364 16.2794 23.8364 17.2963C23.8364 17.8223 23.6698 18.1948 23.3367 18.414C23.0737 18.5893 22.6617 18.677 22.1007 18.677H15.7365V15.771H22.1007ZM23.7049 20.4915C24.0292 20.7633 24.1914 21.1578 24.1914 21.675C24.1914 22.7444 23.6085 23.2791 22.4426 23.2791H15.7365V20.0708H22.4426C22.9598 20.0708 23.3806 20.211 23.7049 20.4915ZM13.228 24.6598H11.4923L10.2826 22.3719H2.9454L1.73568 24.6598H0L5.41743 14.3772H7.79742L13.228 24.6598ZM9.612 21.0175L6.81124 15.6001H6.42991L3.62915 21.0175H9.612ZM25.5984 7.4554C25.5984 9.45406 24.507 10.4534 22.3243 10.4534H14.0798V0.170792H21.9692C22.9686 0.170792 23.7487 0.403093 24.3098 0.867694C24.9234 1.36736 25.2302 2.10809 25.2302 3.08989C25.2302 4.12429 24.8401 4.78613 24.0599 5.07541C24.5684 5.2332 24.9541 5.54001 25.2171 5.99585C25.4713 6.40785 25.5984 6.89437 25.5984 7.4554ZM23.7049 3.08989C23.7049 2.07303 23.1263 1.5646 21.9692 1.5646H15.6051V4.51H21.9692C22.539 4.51 22.9554 4.41357 23.2184 4.22072C23.5427 4.00156 23.7049 3.62462 23.7049 3.08989ZM24.0599 7.46855C24.0599 6.95135 23.8978 6.54811 23.5734 6.25883C23.2578 5.96078 22.8371 5.81176 22.3111 5.81176H15.6051V9.07274H22.3111C23.477 9.07274 24.0599 8.53801 24.0599 7.46855ZM11.4923 10.4534H13.228L7.79742 0.170792H5.41743L0 10.4534H1.73568L2.9454 8.16545H10.2826L11.4923 10.4534ZM6.81124 1.39366L9.612 6.81109H3.62915L6.42991 1.39366H6.81124Z" fill="white"/>
</g>
<defs>
<clipPath id="clip0_1425_11788">
<rect width="143" height="25" fill="white"/>
</clipPath>
</defs>
</svg>
