<svg width="220" height="37" viewBox="0 0 220 37" fill="none" xmlns="http://www.w3.org/2000/svg">
<path fill-rule="evenodd" clip-rule="evenodd" d="M102.005 27.291L98.1535 33.3174V27.291H97.1223V35.1113H98.1535L102.005 29.0796V35.1113H103.041V27.291H102.005ZM101.709 25.3521H100.904C100.904 25.5633 100.843 25.7495 100.721 25.9106C100.599 26.0718 100.395 26.1523 100.109 26.1523C99.815 26.1523 99.6073 26.0718 99.4855 25.9106C99.3638 25.7495 99.3029 25.5633 99.3029 25.3521H98.4973C98.4973 25.7746 98.6405 26.1201 98.9269 26.3887C99.217 26.6536 99.6109 26.7861 100.109 26.7861C100.438 26.7861 100.723 26.7253 100.963 26.6035C101.202 26.4818 101.387 26.3135 101.516 26.0986C101.645 25.8802 101.709 25.6313 101.709 25.3521ZM119.499 34.2412L119.402 36.9966H118.473V35.1113H117.705H112.747V27.291H113.789V34.2681H117.64V27.291H118.677V34.2412H119.499ZM128.259 35.1113V34.2681H124.328V31.4966H127.711V30.6533H124.328V28.1396H128.205V27.291H124.328H124.118H123.291V35.1113H124.118H124.328H128.259ZM133.109 31.4966H137.052V35.1113H138.083V27.291H137.052V30.6533H133.109V27.291H132.073V35.1113H133.109V31.4966ZM145.184 35.1113V28.1396H147.698V27.291H145.184H144.163H141.655V28.1396H144.163V35.1113H145.184ZM152.424 32.0444H154.272C154.863 32.0444 155.362 31.9531 155.771 31.7705C156.179 31.5843 156.488 31.314 156.7 30.9595C156.911 30.605 157.017 30.1771 157.017 29.6758C157.017 29.2139 156.911 28.8039 156.7 28.4458C156.488 28.0841 156.179 27.8013 155.771 27.5972C155.362 27.3931 154.863 27.291 154.272 27.291H151.388V35.1113H152.424V32.0444ZM152.424 31.2012V28.1396H154.272C154.677 28.1396 155.004 28.2131 155.255 28.3599C155.506 28.5031 155.688 28.6929 155.803 28.9292C155.921 29.1655 155.98 29.418 155.98 29.6865C155.98 29.9801 155.921 30.2415 155.803 30.4707C155.688 30.6999 155.506 30.8789 155.255 31.0078C155.004 31.1367 154.677 31.2012 154.272 31.2012H152.424ZM87.771 33.3174L91.6221 27.291H92.6587V35.1113H91.6221V29.0796L87.771 35.1113H86.7397V27.291H87.771V33.3174ZM78.178 30.7339V27.291H77.1414V35.1113H78.178V31.5933H79.1239L81.9539 35.1113H83.2214L80.0113 31.0737L82.9958 27.291H81.7122L78.9836 30.7339H78.178ZM72.1191 32.6245H73.1504C73.0967 33.1187 72.9552 33.5609 72.7261 33.9512C72.4969 34.3415 72.1729 34.6512 71.7539 34.8804C71.335 35.106 70.8122 35.2188 70.1855 35.2188C69.7272 35.2188 69.3101 35.1328 68.9341 34.9609C68.5617 34.7891 68.2412 34.5456 67.9727 34.2305C67.7041 33.9118 67.4964 33.5304 67.3496 33.0864C67.2064 32.6388 67.1348 32.1411 67.1348 31.5933V30.8145C67.1348 30.2666 67.2064 29.7707 67.3496 29.3267C67.4964 28.8791 67.7059 28.4959 67.978 28.1772C68.2537 27.8586 68.585 27.6133 68.9717 27.4414C69.3584 27.2695 69.7935 27.1836 70.2769 27.1836C70.8677 27.1836 71.3672 27.2946 71.7754 27.5166C72.1836 27.7386 72.5005 28.0465 72.7261 28.4404C72.9552 28.8307 73.0967 29.2837 73.1504 29.7993H72.1191C72.069 29.4341 71.9759 29.1208 71.8398 28.8594C71.7038 28.5944 71.5104 28.3903 71.2598 28.2471C71.0091 28.1038 70.6815 28.0322 70.2769 28.0322C69.9295 28.0322 69.6234 28.0985 69.3584 28.231C69.097 28.3634 68.8768 28.5514 68.6978 28.7949C68.5223 29.0384 68.3898 29.3302 68.3003 29.6704C68.2108 30.0106 68.166 30.3883 68.166 30.8037V31.5933C68.166 31.9764 68.2054 32.3363 68.2842 32.6729C68.3665 33.0094 68.4901 33.3049 68.6548 33.5591C68.8195 33.8133 69.029 34.0138 69.2832 34.1606C69.5374 34.3039 69.8382 34.3755 70.1855 34.3755C70.626 34.3755 70.9769 34.3057 71.2383 34.166C71.4997 34.0264 71.6966 33.8258 71.8291 33.5645C71.9652 33.3031 72.0619 32.9897 72.1191 32.6245ZM63.5844 35.1113V34.2681H59.6527V31.4966H63.0365V30.6533H59.6527V28.1396H63.5306V27.291H59.6527H59.4432H58.6161V35.1113H59.4432H59.6527H63.5844ZM48.4591 27.291H49.4957V29.7349C49.4957 30.1395 49.5548 30.4564 49.673 30.6855C49.7911 30.9147 49.9702 31.0758 50.2101 31.1689C50.45 31.262 50.749 31.3086 51.1071 31.3086C51.3219 31.3086 51.5296 31.2996 51.7301 31.2817C51.9342 31.2638 52.1329 31.2388 52.3263 31.2065C52.5197 31.1743 52.7094 31.1349 52.8956 31.0884C52.9951 31.064 53.0936 31.0386 53.191 31.0122V27.291H54.2277V35.1113H53.191V31.8645C53.1033 31.8896 53.0156 31.9137 52.9279 31.937C52.756 31.9836 52.5769 32.0229 52.3907 32.0552C52.2081 32.0874 52.0112 32.1125 51.7999 32.1304C51.5922 32.1483 51.3613 32.1572 51.1071 32.1572C50.5556 32.1572 50.0812 32.0785 49.6837 31.9209C49.2898 31.7598 48.9873 31.502 48.776 31.1475C48.5647 30.793 48.4591 30.3221 48.4591 29.7349V27.291ZM43.2543 27.291L39.4032 33.3174V27.291H38.3719V35.1113H39.4032L43.2543 29.0796V35.1113H44.2909V27.291H43.2543ZM32.92 27.291V30.6533H28.9777V27.291H27.941V35.1113H28.9777V31.4966H32.92V35.1113H33.9513V27.291H32.92ZM21.0659 30.2881L19.186 27.291H17.9775L20.4482 31.1636L17.9185 35.1113H19.1377L21.0659 32.0552L22.9941 35.1113H24.2134L21.6836 31.1636L24.1543 27.291H22.9458L21.0659 30.2881ZM14.7009 34.2681V35.1113H10.7693H10.5598H9.73267V27.291H10.5598H10.7693H14.6472V28.1396H10.7693V30.6533H14.1531V31.4966H10.7693V34.2681H14.7009ZM3.52881 35.1113V28.1396H6.04248V27.291H3.52881H2.5083H0V28.1396H2.5083V35.1113H3.52881Z" fill="#00A19C"/>
<path fill-rule="evenodd" clip-rule="evenodd" d="M43.2932 15.8012C44.3465 15.3441 44.8731 14.41 44.8731 12.999C44.8731 11.5084 44.4359 10.5545 43.5615 10.1371C42.9354 9.83904 41.435 9.68501 39.0601 9.67508C36.6951 9.66514 35.2244 9.51609 34.6481 9.22792C34.0221 8.91987 33.709 8.37832 33.709 7.60324C33.709 6.69898 34.2804 6.16736 35.4232 6.00837C35.8107 5.94875 36.8193 5.91894 38.4489 5.91894C40.4065 5.91894 41.6188 6.05309 42.0858 6.32138C42.5926 6.60955 42.846 7.24054 42.846 8.21436H44.5452C44.5452 6.76357 44.2272 5.78479 43.5913 5.27801C42.8063 4.66193 41.0921 4.35388 38.4489 4.35388C35.766 4.35388 34.027 4.54765 33.2321 4.93519C32.3974 5.35254 31.98 6.24189 31.98 7.60324C31.98 8.85529 32.3328 9.73967 33.0383 10.2564C33.9326 10.9023 35.7362 11.2252 38.4489 11.2252C40.7245 11.2252 42.056 11.3196 42.4436 11.5084C42.9106 11.727 43.1441 12.2239 43.1441 12.999C43.1441 13.7542 42.8063 14.256 42.1305 14.5044C41.6238 14.6932 40.2674 14.7876 38.0614 14.7876C35.8753 14.7876 34.5487 14.6485 34.0817 14.3703C33.5848 14.0721 33.3364 13.3815 33.3364 12.2984H31.5925C31.5925 13.8784 31.9154 14.9168 32.5613 15.4136C33.3662 16.0396 35.1946 16.3527 38.0465 16.3527C40.7096 16.3527 42.4585 16.1688 43.2932 15.8012ZM99.1431 12.1493C99.1431 13.5902 98.8649 14.6336 98.3084 15.2795C97.8315 15.8359 97.0663 16.1738 96.013 16.293C95.5957 16.3427 94.4579 16.3676 92.5997 16.3676C90.6521 16.3676 89.2907 16.2582 88.5156 16.0396C87.5518 15.7713 86.891 15.2198 86.5332 14.3851C86.1755 13.5803 85.9967 12.2487 85.9967 10.3905C85.9967 8.53233 86.1755 7.19085 86.5332 6.36609C86.891 5.54133 87.5518 4.98983 88.5156 4.7116C89.3007 4.49299 90.662 4.38368 92.5997 4.38368C94.4778 4.38368 95.6155 4.40852 96.013 4.45821C97.0663 4.57745 97.8315 4.91034 98.3084 5.45686C98.8649 6.10276 99.1431 7.1511 99.1431 8.60189H97.3992C97.3992 7.32003 97.1309 6.54992 96.5943 6.29156C96.1472 6.06301 94.8156 5.94874 92.5997 5.94874C90.9502 5.94874 89.882 6.00339 89.3951 6.1127C88.6995 6.27169 88.2424 6.65426 88.0238 7.26041C87.835 7.80694 87.7406 8.85031 87.7406 10.3905C87.7406 11.9109 87.84 12.9443 88.0387 13.4908C88.2573 14.097 88.7194 14.4795 89.4249 14.6385C89.9018 14.7478 90.9601 14.8025 92.5997 14.8025C94.7958 14.8025 96.1223 14.6932 96.5794 14.4746C97.126 14.2063 97.3992 13.4312 97.3992 12.1493H99.1431ZM128.23 10.3905C128.23 12.2785 128.141 13.5157 127.962 14.1019C127.634 15.195 126.64 15.8906 124.981 16.1887C124.325 16.3079 123.013 16.3676 121.046 16.3676C119.108 16.3676 117.796 16.3079 117.111 16.1887C115.441 15.8806 114.443 15.19 114.115 14.1168C113.936 13.5405 113.846 12.2984 113.846 10.3905C113.846 8.50252 113.936 7.26041 114.115 6.6642C114.443 5.57114 115.436 4.87556 117.096 4.57745C117.781 4.44827 119.098 4.38368 121.046 4.38368C122.993 4.38368 124.305 4.4433 124.981 4.56255C126.64 4.87059 127.634 5.56617 127.962 6.64929C128.141 7.23556 128.23 8.48264 128.23 10.3905ZM126.501 10.3905C126.501 8.23422 126.272 6.96727 125.815 6.58967C125.318 6.16238 123.729 5.94874 121.046 5.94874C119.128 5.94874 117.975 5.98352 117.588 6.05308C116.783 6.17232 116.246 6.52508 115.978 7.11135C115.719 7.69763 115.59 8.79068 115.59 10.3905C115.59 11.9605 115.724 13.0387 115.993 13.625C116.271 14.2112 116.812 14.569 117.617 14.6982C118.015 14.7677 119.158 14.8025 121.046 14.8025C122.953 14.8025 124.096 14.7727 124.474 14.7131C125.279 14.5839 125.815 14.2311 126.084 13.6548C126.362 13.0685 126.501 11.9804 126.501 10.3905ZM142.281 15.2795C142.837 14.6336 143.116 13.5902 143.116 12.1493H141.372C141.372 13.4312 141.098 14.2063 140.552 14.4746C140.095 14.6932 138.768 14.8025 136.572 14.8025C134.932 14.8025 133.874 14.7478 133.397 14.6385C132.692 14.4795 132.23 14.097 132.011 13.4908C131.812 12.9443 131.713 11.9109 131.713 10.3905C131.713 8.85031 131.807 7.80694 131.996 7.26041C132.215 6.65426 132.672 6.27169 133.367 6.1127C133.854 6.00339 134.923 5.94874 136.572 5.94874C138.788 5.94874 140.12 6.06301 140.567 6.29156C141.103 6.54992 141.372 7.32003 141.372 8.60189H143.116C143.116 7.1511 142.837 6.10276 142.281 5.45686C141.804 4.91034 141.039 4.57745 139.985 4.45821C139.588 4.40852 138.45 4.38368 136.572 4.38368C134.634 4.38368 133.273 4.49299 132.488 4.7116C131.524 4.98983 130.863 5.54133 130.506 6.36609C130.148 7.19085 129.969 8.53233 129.969 10.3905C129.969 12.2487 130.148 13.5803 130.506 14.3851C130.863 15.2198 131.524 15.7713 132.488 16.0396C133.263 16.2582 134.624 16.3676 136.572 16.3676C138.43 16.3676 139.568 16.3427 139.985 16.293C141.039 16.1738 141.804 15.8359 142.281 15.2795ZM216.165 15.2795C216.722 14.6336 217 13.5902 217 12.1493H215.256C215.256 13.4312 214.983 14.2063 214.436 14.4746C213.979 14.6932 212.653 14.8025 210.457 14.8025C208.817 14.8025 207.759 14.7478 207.282 14.6385C206.576 14.4795 206.114 14.097 205.896 13.4908C205.697 12.9443 205.597 11.9109 205.597 10.3905C205.597 8.85031 205.692 7.80694 205.881 7.26041C206.099 6.65426 206.556 6.27169 207.252 6.1127C207.739 6.00339 208.807 5.94874 210.457 5.94874C212.672 5.94874 214.004 6.06301 214.451 6.29156C214.988 6.54992 215.256 7.32003 215.256 8.60189H217C217 7.1511 216.722 6.10276 216.165 5.45686C215.688 4.91034 214.923 4.57745 213.87 4.45821C213.472 4.40852 212.335 4.38368 210.457 4.38368C208.519 4.38368 207.158 4.49299 206.373 4.7116C205.409 4.98983 204.748 5.54133 204.39 6.36609C204.032 7.19085 203.854 8.53233 203.854 10.3905C203.854 12.2487 204.032 13.5803 204.39 14.3851C204.748 15.2198 205.409 15.7713 206.373 16.0396C207.148 16.2582 208.509 16.3676 210.457 16.3676C212.315 16.3676 213.453 16.3427 213.87 16.293C214.923 16.1738 215.688 15.8359 216.165 15.2795ZM200.164 16.2035H201.908V4.54752H199.36L189.358 14.7726V4.54752H187.629V16.2035H190.252L200.164 6.08277V16.2035ZM185.491 12.8051C185.491 15.0707 184.254 16.2035 181.78 16.2035H172.434V4.54752H181.377C182.51 4.54752 183.394 4.81085 184.03 5.3375C184.726 5.90391 185.074 6.74357 185.074 7.8565C185.074 9.02905 184.631 9.77929 183.747 10.1072C184.323 10.2861 184.761 10.6339 185.059 11.1506C185.347 11.6176 185.491 12.1691 185.491 12.8051ZM183.345 7.8565C183.345 6.70382 182.689 6.12749 181.377 6.12749H174.163V9.42156H181.377C182.013 9.42156 182.48 9.32219 182.778 9.12345C183.156 8.87503 183.345 8.45271 183.345 7.8565ZM183.747 12.82C183.747 12.2337 183.563 11.7865 183.196 11.4785C182.828 11.1605 182.351 11.0015 181.765 11.0015H174.163V14.6384H181.765C183.086 14.6384 183.747 14.0323 183.747 12.82ZM169.754 10.9419C170.301 10.3059 170.574 9.41659 170.574 8.27385C170.574 5.78963 169.471 4.54752 167.265 4.54752H157.755V16.2035H159.499V11.9555H167.191C168.323 11.9555 169.178 11.6176 169.754 10.9419ZM167.176 6.12749C168.279 6.12749 168.83 6.84294 168.83 8.27385C168.83 9.68489 168.284 10.3904 167.191 10.3904H159.499V6.12749H167.176ZM155.9 16.2035H144.751V4.54752H155.9V6.12749H146.48V9.51099H155.572V11.076H146.48V14.6384H155.9V16.2035ZM107.337 6.12749H112.553V4.54752H100.376V6.12749H105.593V16.2035H107.337V6.12749ZM80.3557 16.2035C82.83 16.2035 84.0672 15.0707 84.0672 12.8051C84.0672 12.1691 83.9231 11.6176 83.6349 11.1506C83.3368 10.6339 82.8996 10.2861 82.3232 10.1072C83.2076 9.77929 83.6498 9.02905 83.6498 7.8565C83.6498 6.74357 83.302 5.90391 82.6064 5.3375C81.9705 4.81085 81.0861 4.54752 79.9533 4.54752H71.0101V16.2035H80.3557ZM79.9533 6.12749C81.265 6.12749 81.9208 6.70382 81.9208 7.8565C81.9208 8.45271 81.732 8.87503 81.3544 9.12345C81.0563 9.32219 80.5892 9.42156 79.9533 9.42156H72.7391V6.12749H79.9533ZM81.7717 11.4785C82.1394 11.7865 82.3232 12.2337 82.3232 12.82C82.3232 14.0323 81.6624 14.6384 80.3408 14.6384H72.7391V11.0015H80.3408C80.9271 11.0015 81.4041 11.1605 81.7717 11.4785ZM69.8956 16.2035H67.9281L66.5568 13.61H58.2396L56.8683 16.2035H54.9008L61.0418 4.54752H63.7397L69.8956 16.2035ZM65.7966 12.0747L62.6218 5.93372H62.1895L59.0147 12.0747H65.7966ZM29.0173 12.8051C29.0173 15.0707 27.7802 16.2035 25.3059 16.2035H15.9603V4.54752H24.9035C26.0363 4.54752 26.9206 4.81085 27.5566 5.3375C28.2522 5.90391 28.6 6.74357 28.6 7.8565C28.6 9.02905 28.1578 9.77929 27.2734 10.1072C27.8497 10.2861 28.287 10.6339 28.5851 11.1506C28.8732 11.6176 29.0173 12.1691 29.0173 12.8051ZM26.871 7.8565C26.871 6.70382 26.2151 6.12749 24.9035 6.12749H17.6893V9.46628H24.9035C25.5494 9.46628 26.0214 9.35697 26.3195 9.13836C26.6871 8.88994 26.871 8.46265 26.871 7.8565ZM27.2734 12.82C27.2734 12.2337 27.0896 11.7766 26.7219 11.4487C26.3642 11.1108 25.8872 10.9419 25.291 10.9419H17.6893V14.6384H25.291C26.6126 14.6384 27.2734 14.0323 27.2734 12.82ZM13.0272 16.2035H14.9947L8.83885 4.54752H6.14099L0 16.2035H1.9675L3.33879 13.61H11.656L13.0272 16.2035ZM7.72095 5.93372L10.8958 12.0747H4.11387L7.2887 5.93372H7.72095Z" fill="white"/>
</svg>
