<svg width="143" height="16" viewBox="0 0 143 16" fill="none" xmlns="http://www.w3.org/2000/svg">
<path d="M18.9662 14.6444H16.4819L14.7499 11.4382H4.20916L2.4811 14.6444H0L7.74262 0.245013H11.1785L18.9662 14.6444ZM13.7709 9.53822L9.76738 1.96073L9.20617 1.95371L5.18878 9.53822H13.7709ZM36.7062 10.4473C36.7062 13.2454 35.1418 14.6444 32.0123 14.6444H20.1896V0.245013H31.5075C32.9397 0.245013 34.0581 0.571908 34.8629 1.22184C35.7443 1.9198 36.1837 2.95806 36.1837 4.33341C36.1837 5.77982 35.6192 6.70932 34.4904 7.1143C35.2217 7.33564 35.7797 7.76488 36.1556 8.40142C36.5215 8.98038 36.7062 9.66105 36.7062 10.4473ZM33.9886 4.33348C33.9886 2.91396 33.159 2.20574 31.5002 2.20574H22.3845V6.31149H31.5002C32.3194 6.31149 32.9154 6.17841 33.2912 5.90974C33.7548 5.60328 33.9886 5.07553 33.9886 4.33348ZM34.4968 10.4543C34.4968 9.72892 34.2708 9.16078 33.8105 8.74884C33.3541 8.33683 32.7477 8.12896 31.9914 8.12896H22.3845V12.7042H31.9914C33.6644 12.7042 34.4968 11.9552 34.4968 10.4543ZM56.7353 10.6859C56.7353 12.4285 56.07 13.5825 54.7387 14.1475C53.6832 14.6004 51.4738 14.8287 48.1041 14.8287C44.5012 14.8287 42.1878 14.4404 41.1701 13.6676C40.3548 13.0548 39.9469 11.7716 39.9469 9.81777H42.1491C42.1491 11.1554 42.4627 12.0063 43.09 12.3741C43.6826 12.7176 45.3584 12.8878 48.1184 12.8878C50.906 12.8878 52.6204 12.7726 53.2615 12.5372C54.1154 12.2308 54.5403 11.6116 54.5403 10.6789C54.5403 9.7225 54.2436 9.10575 53.655 8.8371C53.1639 8.60548 51.481 8.48654 48.6064 8.48654C45.177 8.48654 42.895 8.08804 41.766 7.29154C40.8741 6.6518 40.4277 5.55918 40.4277 4.0136C40.4277 2.3318 40.9574 1.23208 42.0137 0.718396C43.0169 0.237991 45.2191 0 48.6129 0C51.9585 0 54.1292 0.381248 55.1219 1.14382C55.9273 1.77008 56.3314 2.9785 56.3314 4.77231H54.1816C54.1816 3.57091 53.8606 2.79106 53.2197 2.43735C52.627 2.10722 51.0941 1.9403 48.6201 1.9403C46.5575 1.9403 45.2818 1.97802 44.7907 2.04908C43.3442 2.24676 42.6233 2.9037 42.6233 4.02007C42.6233 4.97708 43.0201 5.64752 43.8111 6.02876C44.54 6.38255 46.4002 6.56676 49.3974 6.58016C52.3939 6.59358 54.2856 6.781 55.0767 7.15207C56.1814 7.6664 56.7353 8.84412 56.7353 10.6859ZM86.6087 14.6444H84.1236L82.3918 11.4382H71.8513L70.1231 14.6444H67.6421L75.3845 0.245013H78.8206L86.6087 14.6444ZM81.4131 9.53822L77.4097 1.96073L76.8484 1.95371L72.8309 9.53822H81.4131ZM104.662 10.4677C104.662 12.0746 104.265 13.2249 103.473 13.9126C102.847 14.4781 101.839 14.7942 100.456 14.8689C100.707 14.8689 99.3586 14.8689 96.4033 14.8689C93.4099 14.8689 92.0617 14.8689 92.3514 14.8689C90.9778 14.7942 89.9746 14.4814 89.3333 13.9299C88.5421 13.2421 88.1449 12.0881 88.1449 10.4677V0.245013H90.3612V10.4645C90.3612 11.4209 90.7136 12.0983 91.4175 12.4899C91.943 12.7964 92.7418 12.9562 93.8078 12.9696C90.4553 12.9428 91.3197 12.9287 96.4033 12.9287C101.488 12.9287 102.362 12.9428 99.0205 12.9696C100.076 12.9562 100.874 12.7962 101.411 12.4899C102.115 12.0983 102.467 11.4209 102.467 10.4645V0.245013H104.662V10.4677ZM122.388 2.20574H115.809V14.6444H113.593V2.20574H106.986V0.245013H122.388V2.20574ZM142.451 7.46169C142.451 9.79731 142.34 11.3256 142.114 12.0504C141.7 13.3989 140.441 14.2599 138.343 14.6278C137.514 14.7743 135.857 14.8492 133.367 14.8492C130.914 14.8492 129.255 14.7743 128.392 14.6278C126.281 14.2465 125.015 13.3951 124.6 12.0676C124.374 11.3563 124.263 9.82098 124.263 7.46169C124.263 5.12989 124.374 3.59458 124.6 2.85953C125.015 1.50779 126.272 0.649927 128.371 0.278932C129.239 0.119031 130.904 0.0409408 133.367 0.0409408C135.83 0.0409408 137.489 0.1158 138.343 0.262288C140.441 0.643537 141.7 1.5014 142.114 2.83911C142.34 3.56388 142.451 5.1063 142.451 7.46169ZM140.257 7.46169C140.257 4.803 139.967 3.237 139.393 2.77063C138.766 2.24353 136.755 1.98124 133.367 1.98124C130.945 1.98124 129.49 2.02542 129.002 2.11045C127.985 2.25694 127.312 2.69262 126.977 3.41417C126.646 4.13959 126.479 5.48748 126.479 7.46169C126.479 9.40195 126.653 10.73 126.999 11.4548C127.343 12.1802 128.022 12.6191 129.04 12.779C129.541 12.8642 130.985 12.9082 133.367 12.9082C135.776 12.9082 137.222 12.8711 137.696 12.7995C138.713 12.6396 139.393 12.2007 139.737 11.4822C140.083 10.7639 140.257 9.42629 140.257 7.46169ZM66.088 8.35348H58.68V6.41325H66.088V8.35348Z" fill="white"/>
</svg>
