<svg width="214" height="32" viewBox="0 0 214 32" fill="none" xmlns="http://www.w3.org/2000/svg">
<path d="M16.2607 12.5524H14.1308L12.6458 9.80416H3.60873L2.12717 12.5524H0L6.63814 0.210011H9.58387L16.2607 12.5524ZM11.8065 8.17562L8.37408 1.68063L7.89293 1.67461L4.44861 8.17562H11.8065ZM31.4701 8.95482C31.4701 11.3532 30.1289 12.5524 27.4458 12.5524H17.3096V0.210011H27.013C28.2409 0.210011 29.1997 0.490207 29.8897 1.04729C30.6454 1.64554 31.0221 2.53548 31.0221 3.71435C31.0221 4.95413 30.5382 5.75084 29.5704 6.09797C30.1974 6.28769 30.6758 6.65562 30.9981 7.20122C31.3118 7.69747 31.4701 8.2809 31.4701 8.95482ZM29.1402 3.71441C29.1402 2.49768 28.4289 1.89064 27.0068 1.89064H19.1914V5.40985H27.0068C27.7091 5.40985 28.2201 5.29578 28.5423 5.06549C28.9398 4.80281 29.1402 4.35046 29.1402 3.71441ZM29.5759 8.96083C29.5759 8.33907 29.3821 7.8521 28.9875 7.49901C28.5962 7.14586 28.0763 6.96768 27.4278 6.96768H19.1914V10.8893H27.4278C28.8623 10.8893 29.5759 10.2473 29.5759 8.96083ZM48.6421 9.15936C48.6421 10.653 48.0717 11.6422 46.9303 12.1264C46.0253 12.5146 44.1311 12.7103 41.2421 12.7103C38.1532 12.7103 36.1698 12.3775 35.2973 11.7151C34.5983 11.1898 34.2485 10.0899 34.2485 8.41523H36.1366C36.1366 9.56179 36.4055 10.2911 36.9433 10.6064C37.4514 10.9008 38.8881 11.0467 41.2544 11.0467C43.6444 11.0467 45.1142 10.948 45.6638 10.7462C46.3959 10.4835 46.7603 9.95277 46.7603 9.15334C46.7603 8.33357 46.5059 7.80493 46.0012 7.57466C45.5802 7.37613 44.1373 7.27418 41.6728 7.27418C38.7326 7.27418 36.7761 6.93261 35.8081 6.24989C35.0435 5.70154 34.6607 4.76501 34.6607 3.44023C34.6607 1.99869 35.1149 1.05607 36.0205 0.615768C36.8806 0.203992 38.7686 0 41.6783 0C44.5467 0 46.4077 0.326784 47.2589 0.980416C47.9494 1.51721 48.2958 2.553 48.2958 4.09055H46.4527C46.4527 3.06078 46.1775 2.39234 45.628 2.08916C45.1199 1.80619 43.8056 1.66311 41.6845 1.66311C39.9162 1.66311 38.8225 1.69544 38.4014 1.75635C37.1612 1.92579 36.5432 2.48889 36.5432 3.44577C36.5432 4.26607 36.8834 4.84073 37.5615 5.16751C38.1864 5.47076 39.7813 5.62865 42.3509 5.64014C44.92 5.65164 46.5419 5.81229 47.2201 6.13035C48.1672 6.5712 48.6421 7.58067 48.6421 9.15936ZM74.2541 12.5524H72.1235L70.6387 9.80416H61.6018L60.1201 12.5524H57.993L64.631 0.210011H67.577L74.2541 12.5524ZM69.7997 8.17562L66.3674 1.68063L65.8861 1.67461L62.4417 8.17562H69.7997ZM89.7318 8.97235C89.7318 10.3497 89.3914 11.3356 88.713 11.9251C88.176 12.4098 87.312 12.6807 86.1261 12.7448C86.3411 12.7448 85.1853 12.7448 82.6515 12.7448C80.0851 12.7448 78.9293 12.7448 79.1776 12.7448C78 12.6807 77.1398 12.4126 76.5901 11.9399C75.9117 11.3504 75.5712 10.3612 75.5712 8.97235V0.210011H77.4714V8.96954C77.4714 9.78931 77.7734 10.37 78.377 10.7056C78.8275 10.9683 79.5123 11.1053 80.4262 11.1168C77.552 11.0938 78.2931 11.0817 82.6515 11.0817C87.0106 11.0817 87.7606 11.0938 84.8954 11.1168C85.8003 11.1053 86.4845 10.9682 86.9446 10.7056C87.5482 10.37 87.8502 9.78931 87.8502 8.96954V0.210011H89.7318V8.97235ZM104.929 1.89064H99.289V12.5524H97.3894V1.89064H91.7248V0.210011H104.929V1.89064ZM122.131 6.39574C122.131 8.3977 122.036 9.70765 121.842 10.3289C121.487 11.4848 120.408 12.2228 118.609 12.5381C117.898 12.6637 116.477 12.7279 114.342 12.7279C112.239 12.7279 110.817 12.6637 110.077 12.5381C108.267 12.2113 107.182 11.4815 106.826 10.3437C106.632 9.73395 106.537 8.41798 106.537 6.39574C106.537 4.39705 106.632 3.08107 106.826 2.45103C107.182 1.29239 108.26 0.55708 110.059 0.239084C110.803 0.102026 112.23 0.0350921 114.342 0.0350921C116.454 0.0350921 117.876 0.099257 118.609 0.224818C120.408 0.551603 121.487 1.28691 121.842 2.43352C122.036 3.05476 122.131 4.37683 122.131 6.39574ZM120.25 6.39574C120.25 4.11686 120.001 2.77457 119.508 2.37483C118.971 1.92303 117.247 1.69821 114.342 1.69821C112.266 1.69821 111.018 1.73607 110.6 1.80896C109.728 1.93452 109.151 2.30796 108.864 2.92643C108.58 3.54822 108.437 4.70355 108.437 6.39574C108.437 8.05882 108.586 9.19712 108.883 9.81843C109.178 10.4402 109.76 10.8164 110.632 10.9534C111.062 11.0264 112.3 11.0642 114.342 11.0642C116.408 11.0642 117.647 11.0324 118.054 10.971C118.926 10.8339 119.508 10.4577 119.804 9.84192C120.1 9.22618 120.25 8.07968 120.25 6.39574ZM56.6607 7.16013H50.3094V5.49707H56.6607V7.16013Z" fill="white"/>
<path d="M8.29325 26.851C8.29325 27.5737 8.11635 28.1347 7.76333 28.5371C7.39053 28.9637 6.83808 29.1781 6.10655 29.1781H1.13465V31.8638H0V24.4959H6.15313C7.57971 24.4959 8.29325 25.2811 8.29325 26.851ZM7.15859 26.851C7.15859 25.9501 6.80211 25.4989 6.09077 25.4989H1.13459V28.1851H6.09976C6.80602 28.1851 7.15859 27.741 7.15859 26.851ZM19.95 28.1884C19.95 29.3832 19.8926 30.1656 19.777 30.5363C19.5648 31.2261 18.9208 31.6669 17.8474 31.855C17.4229 31.9302 16.574 31.9686 15.3008 31.9686C14.0449 31.9686 13.196 31.9302 12.7537 31.855C11.673 31.6598 11.0257 31.2245 10.8134 30.5451C10.6977 30.181 10.6405 29.3958 10.6405 28.1884C10.6405 26.9952 10.6977 26.21 10.8134 25.8333C11.0256 25.1419 11.6696 24.7032 12.7431 24.5129C13.1871 24.4312 14.0399 24.3912 15.3008 24.3912C16.5612 24.3912 17.4106 24.4296 17.8474 24.5047C18.9208 24.6994 19.5647 25.1386 19.777 25.8229C19.8926 26.1941 19.95 26.9832 19.95 28.1884ZM18.8265 28.1884C18.8265 26.828 18.6783 26.0269 18.3841 25.7883C18.063 25.518 17.0339 25.3842 15.3009 25.3842C14.0613 25.3842 13.3157 25.4066 13.066 25.4505C12.5455 25.5251 12.2008 25.7483 12.0301 26.1173C11.8606 26.4885 11.7747 27.1783 11.7747 28.1883C11.7747 29.1814 11.8639 29.8607 12.0408 30.2314C12.2171 30.6026 12.5651 30.8274 13.0856 30.9091C13.3427 30.9529 14.081 30.9754 15.3009 30.9754C16.5333 30.9754 17.2732 30.9562 17.5156 30.9195C18.0367 30.8378 18.3843 30.613 18.5604 30.2456C18.7373 29.8782 18.8266 29.1933 18.8266 28.1882L18.8265 28.1884ZM35.5123 24.4959L31.3731 31.8638H30.043L28.7608 29.5559L27.4655 31.8638H26.1243L22.0333 24.4959H23.1892L26.7076 30.8746L26.8755 30.8708L28.1825 28.5157L25.9497 24.4959H27.1074L28.7518 27.4793L30.3871 24.4959H31.5959L29.3345 28.53L30.6241 30.8746L30.7846 30.8708L34.3052 24.4959H35.5123ZM44.3281 31.8638H37.1017V24.4959H44.3281V25.4989H38.2357V27.6313H44.1069V28.6237H38.2357V30.8708H44.3281V31.8638ZM56.2291 31.8638H55.0944V30.056C55.0944 29.7857 54.9574 29.5697 54.6807 29.4062C54.442 29.2686 54.1759 29.199 53.8801 29.199H48.5782V31.8639H47.4434V24.496H54.2208C54.8968 24.496 55.4082 24.7312 55.7563 25.2028C56.0719 25.6173 56.229 26.1662 56.229 26.8511C56.229 27.4603 56.129 27.917 55.9275 28.218C55.7866 28.4253 55.5598 28.5942 55.2499 28.7269C55.9023 28.9967 56.229 29.4392 56.229 30.0539V31.8639L56.2291 31.8638ZM55.0944 26.8526C55.0944 26.3701 54.9928 26.0236 54.7912 25.8141C54.588 25.6035 54.2495 25.4988 53.7729 25.4988H48.5782V28.2059H53.7729C54.2495 28.2059 54.5937 28.0929 54.8059 27.8681C54.9985 27.6608 55.0944 27.3225 55.0944 26.8526ZM80.391 28.1884C80.391 29.3832 80.3341 30.1656 80.2182 30.5363C80.0064 31.2261 79.3619 31.6669 78.2886 31.855C77.8643 31.9302 77.0157 31.9686 75.7421 31.9686C74.4864 31.9686 73.6371 31.9302 73.1949 31.855C72.1146 31.6598 71.4669 31.2245 71.255 30.5451C71.1392 30.181 71.0816 29.3958 71.0816 28.1884C71.0816 26.9952 71.1392 26.21 71.255 25.8333C71.4669 25.1419 72.1107 24.7032 73.1846 24.5129C73.6282 24.4312 74.4813 24.3912 75.7421 24.3912C77.0022 24.3912 77.8522 24.4296 78.2886 24.5047C79.3619 24.6994 80.0058 25.1386 80.2182 25.8229C80.3341 26.1941 80.391 26.9832 80.391 28.1884ZM79.2678 28.1884C79.2678 26.828 79.1194 26.0269 78.8256 25.7883C78.5043 25.518 77.4752 25.3842 75.7421 25.3842C74.5024 25.3842 73.7568 25.4066 73.5072 25.4505C72.9869 25.5251 72.6419 25.7483 72.4717 26.1173C72.3021 26.4885 72.2157 27.1783 72.2157 28.1883C72.2157 29.1814 72.3053 29.8607 72.4819 30.2314C72.6586 30.6026 73.0067 30.8274 73.527 30.9091C73.7843 30.9529 74.5222 30.9754 75.7421 30.9754C76.9747 30.9754 77.7146 30.9562 77.9571 30.9195C78.4781 30.8378 78.8256 30.613 79.0016 30.2456C79.1789 29.8782 79.2678 29.1933 79.2678 28.1882V28.1884ZM89.703 25.4988H83.8234V27.7777H89.4906V28.7806H83.8234V31.8638H82.6886V24.4959H89.703V25.4989V25.4988ZM113.693 28.1796C113.693 29.7873 113.441 30.8466 112.94 31.355C112.607 31.6949 111.974 31.8638 111.041 31.8638H104.704V24.4959H111.041C112.198 24.4959 112.94 24.8091 113.268 25.4379C113.552 25.9901 113.693 26.9047 113.693 28.1796ZM112.558 28.1796C112.558 27.2968 112.503 26.6975 112.394 26.3838C112.189 25.7933 111.735 25.4988 111.028 25.4988H105.839V30.8708H111.028C111.74 30.8708 112.198 30.573 112.405 29.9775C112.506 29.6688 112.558 29.0717 112.558 28.1796ZM125.721 31.8638H124.586V30.056C124.586 29.7857 124.449 29.5697 124.172 29.4062C123.934 29.2686 123.668 29.199 123.372 29.199H118.07V31.8639H116.935V24.496H123.713C124.388 24.496 124.899 24.7312 125.247 25.2028C125.564 25.6173 125.721 26.1662 125.721 26.8511C125.721 27.4603 125.62 27.917 125.419 28.218C125.277 28.4253 125.052 28.5942 124.741 28.7269C125.394 28.9967 125.721 29.4392 125.721 30.0539V31.8639V31.8638ZM124.586 26.8526C124.586 26.3701 124.484 26.0236 124.283 25.8141C124.08 25.6035 123.741 25.4988 123.265 25.4988H118.07V28.2059H123.265C123.741 28.2059 124.085 28.0929 124.297 27.8681C124.49 27.6608 124.586 27.3225 124.586 26.8526ZM130.1 31.8638H128.966V24.4959H130.1V31.8638ZM142.356 24.4959L138.226 31.8638H136.885L132.794 24.4959H133.949L137.468 30.8746L137.635 30.8708L141.148 24.4959H142.356ZM145.419 31.8638H144.285V24.4959H145.419V31.8638ZM157.807 31.8638H156.107L149.685 25.4555V31.8638H148.562V24.4855H150.196L156.672 30.9492V24.4855H157.807V31.8638ZM169.629 29.0942C169.629 30.0752 169.445 30.7858 169.08 31.2261C168.757 31.6094 168.24 31.8479 167.524 31.9422C167.191 31.9806 166.403 31.9998 165.162 31.9998C163.849 31.9998 162.936 31.9335 162.42 31.8013C161.766 31.6253 161.313 31.27 161.066 30.737C160.817 30.2018 160.694 29.3261 160.694 28.1066C160.694 26.931 160.826 26.086 161.09 25.5739C161.354 25.0618 161.816 24.7273 162.479 24.5704C162.976 24.4504 163.868 24.3911 165.162 24.3911C166.493 24.3911 167.227 24.3982 167.36 24.4103C168.108 24.4728 168.652 24.6648 168.992 24.985C169.418 25.3738 169.629 26.0109 169.629 26.8975H168.511C168.511 26.1693 168.324 25.729 167.951 25.5722C167.649 25.4467 166.721 25.3841 165.165 25.3841C164.008 25.3841 163.288 25.4121 163.006 25.4691C162.522 25.5563 162.204 25.7899 162.049 26.166C161.901 26.518 161.828 27.1919 161.828 28.1899C161.828 29.1885 161.9 29.864 162.04 30.216C162.195 30.5993 162.516 30.8345 163.006 30.9212C163.288 30.9788 164.008 31.0067 165.165 31.0067C166.528 31.0067 167.111 31.0122 166.918 31.0243C167.466 30.993 167.855 30.8554 168.086 30.6097C168.368 30.3224 168.509 29.8152 168.509 29.0925L164.873 29.0941V28.1011H169.629V29.0941V29.0942Z" fill="#00A19C"/>
<path d="M183.164 23.2205L184.1 22.2555C184.336 22.0125 184.78 21.8826 185.209 21.8826H212.404C212.831 21.8826 212.938 22.1979 212.703 22.4402L211.725 23.4486C211.55 23.6296 211.248 23.6636 210.964 23.6636H183.324C183.074 23.6636 182.987 23.4026 183.164 23.2205ZM178.231 29.1058L205.402 29.1036C205.835 29.1036 205.935 29.4189 205.701 29.6612L203.67 31.7548C203.494 31.9368 203.194 31.9648 202.906 31.9648H175.268C175 31.9648 174.931 31.7093 175.108 31.5273L177.097 29.4771C177.332 29.2341 177.795 29.1036 178.231 29.1059V29.1058ZM181.795 25.4029H208.991C209.426 25.4029 209.524 25.7182 209.289 25.9606L207.9 27.3933C207.725 27.5748 207.421 27.6017 207.138 27.6017H179.509C179.253 27.6017 179.162 27.3478 179.338 27.1658L180.687 25.7747C180.922 25.5334 181.368 25.4029 181.795 25.4029Z" fill="#00A19C"/>
</svg>
