<svg width="25" height="26" viewBox="0 0 25 26" fill="none" xmlns="http://www.w3.org/2000/svg">
<g clip-path="url(#clip0_1101_565)">
<path fill-rule="evenodd" clip-rule="evenodd" d="M18.3013 1.91712C22.2812 4.01024 25 8.18332 25 12.9936C25 17.8038 22.2812 21.9901 18.3013 24.0704V22.6401C19.8234 21.7296 21.1109 20.4555 22.0477 18.9476L18.3013 17.4269V15.1127L22.4115 18.3239C23.2701 16.7377 23.7513 14.9305 23.7513 12.9933C23.7513 8.91097 21.5658 5.32309 18.3013 3.34675V1.91712ZM12.5132 0.5C14.5944 0.5 16.5582 1.00724 18.3013 1.91712V3.34741C16.7013 2.38489 14.8283 1.81318 12.8513 1.74804L14.2819 11.9798L18.3013 15.113V17.4272L12.4868 15.0739L6.71152 17.44V15.1387L10.7569 11.9794L12.1747 1.74771C10.1714 1.81285 8.31152 2.38489 6.71152 3.34675V1.91712C8.44178 1.00724 10.4188 0.5 12.5132 0.5ZM18.3013 24.0704C16.5582 24.9803 14.5941 25.5 12.5132 25.5C10.4191 25.5 8.44211 24.9803 6.71184 24.0832V22.6401C8.40296 23.6668 10.3928 24.252 12.5132 24.252C14.6204 24.252 16.5977 23.6668 18.3013 22.6401V24.0704ZM6.71184 24.0832C2.71842 21.9901 0 17.8038 0 12.9936C0 8.18332 2.71842 4.01024 6.71184 1.91712V3.34741C3.43388 5.32342 1.24868 8.89847 1.24868 12.9936C1.24868 14.9305 1.74309 16.764 2.60165 18.3499L6.71184 15.1387V17.44L2.97862 18.9736C3.91513 20.4693 5.1898 21.7299 6.71184 22.6401V24.0832Z" fill="#414141"/>
</g>
<defs>
<clipPath id="clip0_1101_565">
<rect width="25.0002" height="25.0002" fill="white" transform="translate(0 0.5)"/>
</clipPath>
</defs>
</svg>
