<svg width="58" height="26" viewBox="0 0 58 26" fill="none" xmlns="http://www.w3.org/2000/svg">
<g clip-path="url(#clip0_1101_637)">
<path fill-rule="evenodd" clip-rule="evenodd" d="M28.8781 23.625C23.0221 23.625 18.2802 18.8832 18.2802 13.0272C18.2802 7.17122 23.0221 2.42937 28.8781 2.42937C34.734 2.42937 39.4759 7.17122 39.4759 13.0272C39.4759 18.8832 34.734 23.625 28.8781 23.625ZM57.1389 6.34241H39.3128C37.1118 2.87774 33.2395 0.581543 28.8373 0.581543C24.4351 0.581543 20.5628 2.87774 18.3618 6.34241H0.617188L2.42425 8.14948H17.3971C17.1253 8.80165 16.9079 9.481 16.7449 10.1875H4.4623L6.26936 11.9946H16.4732C16.446 12.3207 16.4324 12.6603 16.4324 13C16.4324 13.3533 16.446 13.693 16.4732 14.0326H8.30741L10.1145 15.8397H16.7585C16.9215 16.5462 17.1389 17.2256 17.4243 17.8777H12.1389L13.946 19.6848H18.3889C20.59 23.1359 24.4623 25.4185 28.8509 25.4185C33.2531 25.4185 37.1118 23.1223 39.3128 19.6848H43.8237L45.6308 17.8777H40.2503C40.5221 17.2256 40.7531 16.5462 40.9161 15.8397H47.6552L49.4623 14.0326H41.2014C41.2286 13.693 41.2422 13.3533 41.2422 13C41.2422 12.6603 41.2286 12.3207 41.2014 11.9946H51.5003L53.3074 10.1875H40.9297C40.7666 9.481 40.5493 8.80165 40.2775 8.14948H55.3454L57.1389 6.34241ZM33.7422 14.2228L33.7558 10.1332H34.8563V15.7174L33.5248 15.7446L31.2829 11.7908V15.7174H30.1824V10.1332H31.5003L33.7422 14.2228ZM23.3753 14.481L24.802 10.1332H26.4324V15.7174H25.2368V11.5734L23.9868 15.7174H22.7503L21.5003 11.5734V15.7174H20.3047V10.1332H21.9351L23.3753 14.481ZM28.8645 10.1332V15.7174H27.7368V10.1332H28.8645ZM37.2884 10.1332V15.7174H36.1607V10.1332H37.2884Z" fill="#414141"/>
</g>
<defs>
<clipPath id="clip0_1101_637">
<rect width="56.6576" height="25" fill="white" transform="translate(0.505859 0.5)"/>
</clipPath>
</defs>
</svg>
