<svg width="25" height="24" viewBox="0 0 25 24" fill="none" xmlns="http://www.w3.org/2000/svg">
<g id="Navigation / Map_Pin">
<path id="Vector (Stroke)" fill-rule="evenodd" clip-rule="evenodd" d="M12.25 4C10.6552 4 9.12783 4.62669 8.00344 5.73872C6.87943 6.85039 6.25 8.35577 6.25 9.92308C6.25 12.6745 7.80792 15.2121 9.501 17.1378C10.3349 18.0862 11.1714 18.8518 11.7997 19.38C11.9663 19.52 12.1178 19.6429 12.25 19.7477C12.3822 19.6429 12.5337 19.52 12.7003 19.38C13.3286 18.8518 14.1651 18.0862 14.999 17.1378C16.6921 15.2121 18.25 12.6745 18.25 9.92308C18.25 8.35577 17.6206 6.85039 16.4966 5.73872C15.3722 4.62669 13.8448 4 12.25 4ZM12.25 21C11.6808 21.8222 11.6805 21.822 11.6802 21.8218L11.6776 21.82L11.6718 21.8159L11.6528 21.8026C11.6369 21.7913 11.6145 21.7754 11.586 21.7548C11.5291 21.7138 11.4481 21.6543 11.3462 21.5773C11.1426 21.4235 10.8555 21.1991 10.5128 20.9109C9.82861 20.3357 8.91513 19.5004 7.999 18.4584C6.19208 16.4033 4.25 13.4024 4.25 9.92308C4.25 7.81816 5.09557 5.80171 6.59706 4.31672C8.09818 2.8321 10.1318 2 12.25 2C14.3682 2 16.4018 2.8321 17.9029 4.31672C19.4044 5.80171 20.25 7.81816 20.25 9.92308C20.25 13.4024 18.3079 16.4033 16.501 18.4584C15.5849 19.5004 14.6714 20.3357 13.9872 20.9109C13.6445 21.1991 13.3574 21.4235 13.1538 21.5773C13.0519 21.6543 12.9709 21.7138 12.914 21.7548C12.8855 21.7754 12.8631 21.7913 12.8472 21.8026L12.8282 21.8159L12.8224 21.82L12.8205 21.8213C12.8202 21.8215 12.8192 21.8222 12.25 21ZM12.25 21L12.8192 21.8222C12.4768 22.0593 12.0227 22.0589 11.6802 21.8218L12.25 21ZM12.25 8C11.6977 8 11.25 8.44772 11.25 9C11.25 9.55228 11.6977 10 12.25 10C12.8023 10 13.25 9.55228 13.25 9C13.25 8.44772 12.8023 8 12.25 8ZM9.25 9C9.25 7.34315 10.5931 6 12.25 6C13.9069 6 15.25 7.34315 15.25 9C15.25 10.6569 13.9069 12 12.25 12C10.5931 12 9.25 10.6569 9.25 9Z" fill="white"/>
</g>
</svg>
