<svg width="31" height="26" viewBox="0 0 31 26" fill="none" xmlns="http://www.w3.org/2000/svg">
<g clip-path="url(#clip0_1101_646)">
<path d="M17.6438 13.9985C17.62 14.0044 17.5247 14.0044 17.4831 14.0044H14.4116V14.7158H17.5366C17.5604 14.7158 17.745 14.7158 17.7807 14.7099C18.4176 14.6506 18.7092 14.123 18.7092 13.6605C18.7092 13.1863 18.4057 12.6764 17.8283 12.6231C17.7152 12.6112 17.62 12.6112 17.5783 12.6112H15.5366C15.4474 12.6112 15.3462 12.6053 15.3105 12.5934C15.1497 12.5519 15.0902 12.4097 15.0902 12.2911C15.0902 12.1844 15.1497 12.0421 15.3164 11.9947C15.364 11.9828 15.4176 11.9769 15.5307 11.9769H18.4771V11.2773H15.4831C15.3581 11.2773 15.2628 11.2833 15.1855 11.2951C14.6735 11.3663 14.3164 11.7753 14.3164 12.297C14.3164 12.7239 14.5843 13.2218 15.1735 13.3048C15.2807 13.3167 15.4295 13.3167 15.495 13.3167H17.4831C17.5188 13.3167 17.6081 13.3167 17.6259 13.3226C17.8521 13.3523 17.9295 13.5183 17.9295 13.6665C17.9295 13.8088 17.8402 13.9629 17.6438 13.9985Z" fill="#414141"/>
<path d="M11.8235 13.9985C11.7997 14.0044 11.7044 14.0044 11.6687 14.0044H8.59133V14.7158H11.7163C11.7402 14.7158 11.9247 14.7158 11.9604 14.7099C12.5973 14.6506 12.889 14.123 12.889 13.6605C12.889 13.1863 12.5854 12.6764 12.008 12.6231C11.8949 12.6112 11.7997 12.6112 11.758 12.6112H9.71634C9.62705 12.6112 9.52586 12.6053 9.49014 12.5934C9.32943 12.5519 9.26991 12.4097 9.26991 12.2911C9.26991 12.1844 9.32943 12.0421 9.4961 11.9947C9.54372 11.9828 9.59729 11.9769 9.71038 11.9769H12.6568V11.2773H9.66276C9.53776 11.2773 9.44253 11.2833 9.36514 11.2951C8.85324 11.3663 8.49609 11.7753 8.49609 12.297C8.49609 12.7239 8.76395 13.2218 9.35324 13.3048C9.46038 13.3167 9.60919 13.3167 9.67467 13.3167H11.6628C11.6985 13.3167 11.7878 13.3167 11.8056 13.3226C12.0318 13.3523 12.1092 13.5183 12.1092 13.6665C12.1092 13.8088 12.0259 13.9629 11.8235 13.9985Z" fill="#414141"/>
<path d="M6.98866 11.2544H6.21484V14.7343H6.98866V11.2544Z" fill="#414141"/>
<path d="M4.50736 14.7343V11.2544H3.73355V13.851L1.15616 11.2544H0.162109V14.7343H0.935922V12.1259L3.53117 14.7343H4.50736Z" fill="#414141"/>
<path d="M29.3956 11.2544V13.851L26.8183 11.2544H25.8242V14.7343H26.598V12.1259L29.1873 14.7343H30.1635V11.2544H29.3956Z" fill="#414141"/>
<path d="M21.7919 11.2544L19.6133 14.7343H20.5538L20.9407 14.1119H23.4823L23.8692 14.7343H24.8038L22.6252 11.2544H21.7919ZM23.0835 13.4538H21.3395L22.2145 12.0547L23.0835 13.4538Z" fill="#414141"/>
<path d="M4.4656 9.27993C6.02513 4.74472 10.3228 1.69753 15.168 1.69753C20.0133 1.69753 24.3169 4.74472 25.8704 9.27993L25.8823 9.3155H29.2931V8.90644L27.8764 8.74045C27.0014 8.63967 26.8169 8.25432 26.5788 7.7682L26.5193 7.64963C24.4716 3.31005 20.0133 0.5 15.168 0.5C10.3168 0.5 5.86442 3.31005 3.81679 7.66148L3.75726 7.78005C3.51917 8.26618 3.33464 8.65152 2.45964 8.75231L1.04297 8.9183V9.32736H4.44774L4.4656 9.27993Z" fill="#414141"/>
<path d="M25.8823 16.6783L25.8704 16.7139C24.3108 21.2491 20.0132 24.2903 15.1679 24.2903C10.3227 24.2903 6.01909 21.2431 4.46551 16.7079L4.4536 16.6724H1.04883V17.0814L2.4655 17.2474C3.3405 17.3482 3.52503 17.7335 3.76312 18.2197L3.82265 18.3382C5.87028 22.6897 10.3286 25.4997 15.1739 25.4997C20.0191 25.4997 24.4775 22.6897 26.5251 18.3442L26.5846 18.2256C26.8227 17.7395 27.0073 17.3541 27.8823 17.2533L29.2989 17.0873V16.6783H25.8823Z" fill="#414141"/>
</g>
<defs>
<clipPath id="clip0_1101_646">
<rect width="30" height="25" fill="white" transform="translate(0.162109 0.5)"/>
</clipPath>
</defs>
</svg>
