<svg width="33" height="26" viewBox="0 0 33 26" fill="none" xmlns="http://www.w3.org/2000/svg">
<g clip-path="url(#clip0_966_5522)">
<path d="M16.9062 23.7351C10.8973 23.7351 5.91344 18.868 5.91344 13C5.91344 12.6948 5.92779 12.3925 5.95424 12.0933L15.1521 12.6538L11.1738 15.3379C11.12 15.3749 11.0845 15.4359 11.0845 15.5048C11.0845 15.6171 11.1779 15.7083 11.2929 15.7083H27.5363C26.2872 20.2929 21.9593 23.7351 16.9062 23.7351V23.7351ZM16.9062 2.26444C22.9151 2.26444 27.8989 7.13187 27.8989 13C27.8989 13.3027 27.8852 13.6031 27.8589 13.9002L18.67 13.3298L22.6573 10.6616C22.7115 10.6246 22.7466 10.5637 22.7466 10.4947C22.7466 10.3824 22.6536 10.2912 22.539 10.2912H6.27604C7.52548 5.70658 11.853 2.26444 16.9062 2.26444V2.26444ZM32.6719 14.199L29.6644 14.0122C29.6918 13.6783 29.7063 13.3405 29.7063 13C29.7063 6.09616 23.9756 0.499756 16.9062 0.499756C10.7896 0.499756 5.6756 4.68999 4.40864 10.2912H2.04684C1.89225 10.2912 1.75395 10.3629 1.66627 10.4744L0.963417 11.4221C0.93177 11.4619 0.912842 11.5117 0.912842 11.5659C0.912842 11.6958 1.02016 11.8005 1.15314 11.8005L4.14881 11.983C4.12106 12.3184 4.10639 12.6574 4.10639 13C4.10639 19.9033 9.83709 25.4998 16.9062 25.4998C23.0228 25.4998 28.1367 21.3095 29.4041 15.7083H31.7777C31.9327 15.7083 32.0706 15.6366 32.1583 15.5251L32.8615 14.5774C32.8932 14.5376 32.9121 14.4878 32.9121 14.4336C32.9121 14.3038 32.8044 14.199 32.6719 14.199" fill="#414141"/>
</g>
<defs>
<clipPath id="clip0_966_5522">
<rect width="32" height="25" fill="white" transform="translate(0.912842 0.5)"/>
</clipPath>
</defs>
</svg>
