<svg width="25" height="24" viewBox="0 0 25 24" fill="none" xmlns="http://www.w3.org/2000/svg">
<g>
<path id="Union" fill-rule="evenodd" clip-rule="evenodd" d="M10.75 2C6.33172 2 2.75 5.58172 2.75 10C2.75 14.4183 6.33172 18 10.75 18C12.5987 18 14.301 17.3729 15.6556 16.3199L21.0429 21.7071C21.4334 22.0976 22.0666 22.0976 22.4571 21.7071C22.8476 21.3166 22.8476 20.6834 22.4571 20.2929L17.0699 14.9056C18.1229 13.551 18.75 11.8487 18.75 10C18.75 5.58172 15.1683 2 10.75 2ZM4.75 10C4.75 6.68629 7.43629 4 10.75 4C14.0637 4 16.75 6.68629 16.75 10C16.75 13.3137 14.0637 16 10.75 16C7.43629 16 4.75 13.3137 4.75 10Z" fill="white"/>
</g>
</svg>
