<svg width="25" height="26" viewBox="0 0 25 26" fill="none" xmlns="http://www.w3.org/2000/svg">
<g clip-path="url(#clip0_1101_621)">
<path d="M12.5 0.5C5.59584 0.5 0 6.09584 0 13C0 19.9042 5.59584 25.5 12.5 25.5C19.4042 25.5 25 19.9042 25 13C25 6.09584 19.4042 0.5 12.5 0.5ZM12.5 25.1864C5.76735 25.1864 0.313603 19.7327 0.313603 13C0.313603 6.26735 5.77225 0.813603 12.5 0.813603C19.2327 0.813603 24.6864 6.26735 24.6864 13C24.6864 19.7327 19.2327 25.1864 12.5 25.1864Z" fill="#414141"/>
<path d="M12.5008 1.6709C6.24342 1.6709 1.17188 6.74244 1.17188 12.9998C1.17188 19.2571 6.24342 24.3287 12.5008 24.3287C18.7581 24.3287 23.8297 19.2571 23.8297 12.9998C23.8297 6.74244 18.7581 1.6709 12.5008 1.6709ZM12.5008 23.3242C6.79712 23.3242 2.17638 18.7034 2.17638 12.9998C2.17638 7.29614 6.79712 2.67541 12.5008 2.67541C18.2044 2.67541 22.8251 7.30104 22.8251 12.9998C22.8251 18.7034 18.2044 23.3242 12.5008 23.3242Z" fill="#414141"/>
<path d="M20.3544 17.9442C19.5851 17.219 18.61 16.7339 17.5516 16.5673C17.3997 16.5428 17.2625 16.6604 17.2625 16.8123C17.2625 16.9348 17.2625 17.072 17.2625 17.1994C17.2625 17.3121 17.1743 17.4444 17.0616 17.4444C16.9783 17.4444 16.895 17.4444 16.8117 17.4444C16.5177 17.4395 16.4638 17.0769 16.5226 16.8613C17.1547 14.6024 17.3066 13.2353 17.2968 12.2357C17.287 11.1773 17.2625 10.1189 16.7872 8.72236C16.3266 7.37975 15.9052 6.06164 13.6855 4.04772C13.5336 3.91052 13.3817 3.84682 13.1808 3.83212C12.9603 3.81742 12.7839 3.80762 12.5634 3.80762C11.6422 3.80762 10.7504 3.94482 9.90756 4.19472C9.59396 4.28782 9.63806 4.50832 9.81446 4.66022C10.6524 5.38053 11.7941 6.45854 12.5781 7.80605C12.0832 7.85505 11.701 7.57575 11.3825 7.27194C10.3339 6.27234 9.24116 5.56183 8.37385 5.07183C8.22195 4.98853 8.07495 4.94933 7.92305 5.03753C6.96754 5.59613 6.32073 6.11554 5.56123 6.99754C5.43383 7.14944 5.51713 7.26214 5.64453 7.33075C6.47264 7.77175 7.77605 8.60476 8.96676 9.69256C8.72175 9.89837 8.33955 9.82977 7.78095 9.53576C6.70784 8.97226 5.67883 8.64886 4.88992 8.44305C4.72332 8.39895 4.54202 8.44795 4.45382 8.59986C3.94912 9.47696 3.60121 10.5207 3.43951 11.584C3.41011 11.7898 3.54731 11.9662 3.74821 12.0054C5.58083 12.3288 8.85405 13.1863 9.39306 16.9544C9.44206 17.2827 9.13826 17.5718 8.74625 17.3905C8.19255 17.1308 7.64374 16.876 7.09494 16.6163C7.03614 16.5918 6.97244 16.5673 6.90874 16.5673C6.02183 16.5673 5.19863 16.5673 4.31172 16.5673C3.94422 16.5673 3.79231 16.9201 4.03242 17.1945C4.65472 17.9148 5.22803 18.689 5.71803 19.5122C5.74743 19.5808 5.79643 19.6102 5.87973 19.6102C6.25703 19.6102 6.63434 19.6102 7.01164 19.6102C7.09004 19.6102 7.15374 19.5906 7.22234 19.5514C7.58004 19.3407 7.93775 19.1349 8.29055 18.9242C8.35915 18.885 8.42285 18.885 8.50125 18.885C11.2355 18.885 14.1706 18.885 17.0518 18.885C17.1645 18.885 17.2576 18.9585 17.2576 19.0712C17.2576 19.2133 17.2576 19.3505 17.2576 19.4926C17.2576 19.6445 17.3948 19.7621 17.5467 19.7376C18.6051 19.571 19.5802 19.0859 20.3495 18.3607C20.4769 18.2529 20.4769 18.0569 20.3544 17.9442ZM13.0191 15.2198C13.0191 14.5828 13.5336 14.0683 14.1706 14.0683C14.8076 14.0683 15.3221 14.5828 15.3221 15.2198C15.3221 15.8568 14.8076 16.3713 14.1706 16.3713C13.5336 16.3713 13.0191 15.8519 13.0191 15.2198Z" fill="#414141"/>
</g>
<defs>
<clipPath id="clip0_1101_621">
<rect width="25" height="25" fill="white" transform="translate(0 0.5)"/>
</clipPath>
</defs>
</svg>
