<svg width="25" height="24" viewBox="0 0 25 24" fill="none" xmlns="http://www.w3.org/2000/svg">
<g>
<path fill-rule="evenodd" clip-rule="evenodd" d="M11.3877 2.56558C11.9238 1.40327 13.5757 1.40327 14.1118 2.56558L16.5269 7.80134L22.2527 8.48023C23.5237 8.63094 24.0342 10.202 23.0945 11.0711L18.8612 14.9858L19.985 20.6412C20.2344 21.8966 18.898 22.8676 17.781 22.2424L12.7497 19.4261L7.71845 22.2424C6.60153 22.8676 5.26509 21.8966 5.51454 20.6412L6.63825 14.9858L2.40503 11.0711L3.08398 10.3369L2.40503 11.0711C1.46528 10.202 1.97575 8.63094 3.24684 8.48023L8.97264 7.80134L11.3877 2.56558ZM12.7497 4.3876L10.6715 8.89318C10.453 9.36689 10.0041 9.69306 9.48605 9.75448L4.55878 10.3387L8.20164 13.7075L7.56409 14.3969L8.20164 13.7075C8.58464 14.0617 8.75612 14.5894 8.65445 15.1011L7.68745 19.9677L12.0171 17.5442C12.4723 17.2894 13.0272 17.2894 13.4824 17.5442L17.812 19.9677L16.845 15.1011C16.7434 14.5894 16.9149 14.0617 17.2979 13.7075L20.9407 10.3387L16.0134 9.75448C15.4954 9.69306 15.0465 9.36689 14.828 8.89318L15.736 8.47434L14.828 8.89318L12.7497 4.3876Z" fill="white"/>
</g>
</svg>
