<svg width="39" height="26" viewBox="0 0 39 26" fill="none" xmlns="http://www.w3.org/2000/svg">
<g clip-path="url(#clip0_1101_660)">
<path fill-rule="evenodd" clip-rule="evenodd" d="M18.1474 24.2278C16.1352 22.9674 14.6528 18.618 14.6528 13.4503C14.6528 13.2606 14.654 13.0737 14.6583 12.8869L14.6607 12.8896C9.06418 12.01 5.02053 9.60036 4.91698 6.75091L4.90055 6.78376C3.53118 8.48555 2.74955 10.4532 2.74955 12.5497C2.74955 18.719 9.5216 23.7739 18.1112 24.2209L18.1474 24.2278ZM0.162109 12.9998C0.162109 6.09687 8.75244 0.5 19.3499 0.5C29.9471 0.5 38.5377 6.09687 38.5377 12.9998C38.5377 19.9028 29.9469 25.4998 19.3499 25.4998C8.75244 25.4998 0.162109 19.9027 0.162109 12.9998ZM19.3499 2.30398C21.3957 2.30398 23.1358 5.40724 23.7804 9.73722L23.7829 9.73068C27.7628 9.11116 30.5494 7.68202 30.5494 6.01901C30.5494 3.78695 25.5347 1.97962 19.3499 1.97962C13.1647 1.97962 8.1504 3.7871 8.1504 6.01901C8.1504 7.68202 10.9366 9.11116 14.917 9.73068L14.9194 9.73722C15.564 5.40739 17.3046 2.30398 19.3499 2.30398ZM20.5884 24.2208C29.1779 23.7739 35.9509 18.7188 35.9509 12.5496C35.9509 10.4532 35.1683 8.48555 33.7991 6.78361L33.7824 6.75076C33.6788 9.60021 29.6363 12.0099 24.0391 12.8894L24.0415 12.8867C24.0453 13.0736 24.0473 13.2605 24.0473 13.4501C24.0473 18.6178 22.5639 22.9673 20.5529 24.2276L20.5884 24.2208ZM19.3499 10.059C20.2664 10.059 21.1574 10.0199 22.0099 9.9448L22.0087 9.94617C21.5844 7.17047 20.554 5.21153 19.3499 5.21153C18.1458 5.21153 17.1156 7.17047 16.6907 9.94617L16.6896 9.9448C17.5421 10.0199 18.4334 10.059 19.3499 10.059ZM19.3499 20.3379C20.8901 20.3379 22.1464 17.1328 22.2135 13.1127L22.2217 13.1156C21.2933 13.2015 20.333 13.2463 19.3501 13.2463C18.3662 13.2463 17.4068 13.2015 16.4784 13.1156L16.4871 13.1127C16.5531 17.1326 17.8092 20.3379 19.3499 20.3379Z" fill="#414141"/>
</g>
<defs>
<clipPath id="clip0_1101_660">
<rect width="38.7498" height="25" fill="white" transform="translate(0.162109 0.5)"/>
</clipPath>
</defs>
</svg>
