<svg width="47" height="14" viewBox="0 0 47 14" fill="none" xmlns="http://www.w3.org/2000/svg">
<path fill-rule="evenodd" clip-rule="evenodd" d="M16.503 0.185197C18.5077 0.178037 20.1616 0.149398 20.1831 0.127919C20.2189 0.0849606 32.0753 0.170877 33.0347 0.213836L33.6075 0.249634L33.6004 0.944126C33.5789 2.00376 33.4142 5.93444 33.3856 5.97023C33.3498 6.00607 33.1708 6.02037 32.1756 6.07765C31.9124 6.09081 31.3672 6.12277 30.7539 6.15872L30.7538 6.15872C30.3659 6.18147 29.9506 6.20581 29.5623 6.228C24.6651 6.50725 21.8656 6.50007 16.2882 6.1922L16.2854 6.19205C13.2237 6.02037 13.0949 6.01315 13.0878 5.84854C13.0878 5.78409 13.0734 5.5335 13.0591 5.29722C13.0233 4.67435 12.9661 3.2066 12.9088 1.60282L12.8586 0.199516L16.503 0.185197ZM2.39167 0.536351C3.07184 0.479074 6.27941 0.33588 7.83306 0.300081C8.071 0.295755 8.58084 0.288814 9.16668 0.280839L9.16669 0.280839C9.55034 0.275616 9.96659 0.269949 10.3604 0.264283L12.1647 0.242804V0.550673C12.1647 0.722503 12.2148 1.85374 12.2721 3.07805C12.3293 4.2952 12.3795 5.44793 12.3795 5.63407V5.96342L12.1146 5.94194C11.9642 5.92763 11.5704 5.89897 11.2339 5.87749C11.0971 5.86585 10.9071 5.85185 10.698 5.83644L10.6979 5.83643C10.3926 5.81393 10.0466 5.78843 9.76616 5.76293C9.29364 5.72714 8.58483 5.67704 8.19103 5.65555C7.91121 5.64029 7.26257 5.59247 6.55604 5.54039L6.55576 5.54037L6.55564 5.54036C6.26807 5.51916 5.97092 5.49725 5.68516 5.47655L4.68495 5.39626H4.68494L4.68485 5.39625L4.68481 5.39625C3.1979 5.27698 2.93986 5.25628 2.21268 5.19017C1.79741 5.15437 1.17451 5.10427 0.816527 5.08279C0.465703 5.05413 0.143515 5.00403 0.100557 4.96823C0.0575982 4.92527 0.0217995 4.34532 0.00748035 3.61503C-0.0283184 2.02557 0.0504384 1.68907 0.551618 1.18789C0.959723 0.779784 1.37499 0.636588 2.39167 0.536351ZM34.2231 2.72736C34.173 4.10203 34.1229 5.36931 34.1086 5.54114C34.0943 5.72015 34.0943 5.87762 34.1086 5.90628C34.1229 5.92777 34.4308 5.92777 34.8031 5.89911C35.1682 5.87049 35.8054 5.82752 36.2207 5.80604C36.636 5.77742 37.1372 5.74159 37.3305 5.72728C37.5309 5.71297 37.9462 5.68431 38.2612 5.66287C39.1132 5.60559 43.352 5.26906 44.9913 5.13303L46.4234 5.0113L46.4661 4.58174C46.5524 3.71541 46.4879 2.16891 46.3516 1.7966C46.1872 1.33838 45.7861 0.944594 45.2992 0.765601C44.612 0.507851 42.2134 0.364657 37.0727 0.27874L34.3162 0.228622L34.2231 2.72736ZM1.13848 8.72012C0.673096 8.10439 0.365227 7.24524 0.171914 5.99228L0.121796 5.68441L0.365227 5.7202C0.558538 5.756 2.64202 5.92783 4.78991 6.08535C4.87308 6.09228 4.96967 6.09996 5.06957 6.10789C5.27928 6.12456 5.50361 6.14238 5.64911 6.15693C5.8185 6.17388 6.11703 6.19528 6.37962 6.21411L6.57984 6.22856C6.74528 6.24067 6.94709 6.25732 7.12634 6.27211L7.1266 6.27213L7.12664 6.27214C7.26535 6.28358 7.39052 6.29391 7.47483 6.30015L7.58549 6.30808C7.95663 6.33473 9.01244 6.41052 10.1239 6.48629C11.384 6.57222 12.4222 6.64381 12.4293 6.65098C12.4365 6.65812 12.4938 7.30251 12.5582 8.09008C12.6121 8.74818 12.7009 9.77622 12.7704 10.581L12.8088 11.0255C12.8804 11.8489 12.9234 12.5506 12.909 12.5721C12.8661 12.6508 8.40561 11.7773 6.46529 11.3119C3.54414 10.6103 1.99764 9.85135 1.13848 8.72012ZM44.7773 5.83443C43.9897 5.90602 43.059 5.98478 42.701 6.01344C42.3501 6.03492 41.9277 6.07072 41.7702 6.08503C41.6953 6.09183 41.5655 6.10186 41.4138 6.1136C41.2462 6.12656 41.0518 6.14159 40.8752 6.15661C40.6528 6.17081 40.3898 6.19126 40.1791 6.20764L40.179 6.20764C40.0709 6.21604 39.9766 6.22337 39.9087 6.22824C39.4648 6.27116 39.1641 6.29265 36.3646 6.48596C35.1259 6.5719 34.095 6.65066 34.0878 6.66497C34.0592 6.68645 33.5723 12.0777 33.5723 12.3927V12.6147L34.8467 12.3856C35.5484 12.2567 36.9231 11.9846 37.9039 11.777C42.028 10.9178 43.6531 10.3307 44.7845 9.31405C45.6149 8.56228 45.966 7.87496 46.238 6.45735C46.3598 5.81295 46.3598 5.67691 46.2521 5.6984C46.2308 5.70557 45.5649 5.76998 44.7773 5.83443ZM13.6325 12.5357C13.5895 12.2564 13.2459 8.25414 13.1886 7.35202L13.1456 6.67901L13.8544 6.72911C14.1055 6.74306 14.411 6.76306 14.6591 6.77929C14.7929 6.78804 14.91 6.79571 14.9928 6.80074C15.0281 6.80287 15.0706 6.80548 15.119 6.80845C15.3952 6.8254 15.8619 6.85404 16.2458 6.87232C16.4561 6.88567 16.6851 6.89902 16.8892 6.91092C17.1228 6.92455 17.3239 6.93627 17.4271 6.94391C19.9115 7.12291 27.0928 7.12291 29.0402 6.94391C29.1596 6.93255 29.5273 6.91213 29.9282 6.88988C30.0322 6.88411 30.1384 6.87821 30.243 6.87232C30.3841 6.86448 30.5284 6.85664 30.6672 6.8491C31.0357 6.82907 31.366 6.81113 31.496 6.80074C31.5985 6.79252 31.8045 6.77961 32.0425 6.7647C32.2199 6.75358 32.4151 6.74135 32.5986 6.72911L33.3718 6.67901L33.3289 7.09425C33.3074 7.33054 33.2215 8.28993 33.1427 9.23502C33.1157 9.56317 33.092 9.85022 33.0713 10.1022C32.9272 11.8513 32.9225 11.9087 32.885 12.2779C32.8635 12.4927 32.8205 12.6932 32.799 12.7146C32.6988 12.8149 28.3242 13.4807 25.9472 13.76C24.372 13.939 21.9735 13.9246 20.2552 13.717C18.8233 13.5452 16.2315 13.1729 14.6563 12.9151L13.6683 12.7504L13.6325 12.5357Z" fill="#414141"/>
</svg>
