<svg width="30" height="20" viewBox="0 0 30 20" fill="none" xmlns="http://www.w3.org/2000/svg">
<g id="visa 1" clip-path="url(#clip0_271_4268)">
<g id="Group">
<path  d="M30 0H0V20H30V0Z" fill="white"/>
<path id="Vector_2" d="M30 17H0V20H30V17Z" fill="#F7B600"/>
<path id="Vector_3" d="M30 0H0V3H30V0Z" fill="#1A1F71"/>
<path id="Vector_4" d="M12.1 6.31575L9.1 13.7894H7.2L5.7 7.78944C5.7 7.36838 5.6 7.26312 5.3 7.15786C4.9 6.84207 4.1 6.63154 3.5 6.52628V6.31575H6.6C7 6.31575 7.4 6.63154 7.4 7.05259L8.2 11.3684L10.2 6.31575H12.1ZM19.7 11.2631C19.7 9.26312 17.1 9.15786 17.1 8.31575C17.1 7.99996 17.3 7.78944 17.9 7.68417C18.2 7.68417 18.9 7.57891 19.7 7.99996L20 6.42101C19.6 6.21049 19 6.10522 18.3 6.10522C16.5 6.10522 15.2 7.15786 15.2 8.52628C15.2 9.57891 16.1 10.2105 16.8 10.5263C17.5 10.8421 17.8 11.1579 17.8 11.4736C17.8 12 17.2 12.2105 16.7 12.2105C15.8 12.2105 15.2 12 14.8 11.7894L14.5 13.4736C14.9 13.6842 15.7 13.8947 16.5 13.8947C18.5 13.8947 19.7 12.8421 19.7 11.2631ZM24.5 13.7894H26.2L24.7 6.31575H23.1C22.7 6.31575 22.4 6.52628 22.3 6.84207L19.5 13.7894H21.4L22 12.6315H24.4L24.5 13.7894ZM22.5 11.0526L23.5 8.21049L24.1 11.0526H22.5ZM14.8 6.31575L13.3 13.7894H11.5L12.9 6.31575H14.8Z" fill="#1A1F71"/>
</g>
</g>
<defs>
<clipPath id="clip0_271_4268">
<rect width="30" height="20" fill="white"/>
</clipPath>
</defs>
</svg>
