<svg width="24" height="24" viewBox="0 0 24 24" fill="none" xmlns="http://www.w3.org/2000/svg">
<g id="Social / VK">
<path id="Vector" d="M12.77 17.29C7.30005 17.29 4.18005 13.54 4.05005 7.30005H6.79005C6.88005 11.88 8.90005 13.82 10.5 14.22V7.30005H13.08V11.25C14.66 11.08 16.32 9.28005 16.88 7.30005H19.46C19.249 8.32693 18.8284 9.29923 18.2244 10.1561C17.6205 11.013 16.8462 11.7361 15.95 12.28C16.9504 12.7771 17.8339 13.4806 18.5424 14.3442C19.2508 15.2078 19.7681 16.2119 20.06 17.29H17.22C16.958 16.3536 16.4253 15.5153 15.6889 14.8802C14.9524 14.2451 14.0449 13.8416 13.08 13.72V17.29H12.77Z" fill="white"/>
</g>
</svg>
