<svg width="25" height="26" viewBox="0 0 25 26" fill="none" xmlns="http://www.w3.org/2000/svg">
<g clip-path="url(#clip0_1101_619)">
<path d="M12.5 24.0268C6.47321 24.0268 1.51786 19.0268 1.51786 13C1.51786 11.75 1.74107 10.5446 2.14286 9.38393L8.57143 21.8839C8.66071 22.0625 8.75 22.1964 8.97321 22.1964C9.19643 22.1964 9.28571 22.0625 9.375 21.8839L12.3661 15.2321C12.4107 15.1429 12.4554 15.0982 12.5 15.0982C12.5893 15.0982 12.5893 15.1875 12.6339 15.2321L15.6696 21.8839C15.7589 22.0625 15.8482 22.1964 16.0714 22.1964C16.2946 22.1964 16.3839 22.0625 16.4732 21.8839L22.9018 9.38393C23.3036 10.5 23.5268 11.7054 23.5268 13C23.4821 19.0268 18.5268 24.0268 12.5 24.0268ZM12.5 10.1429C12.4107 10.1429 12.4107 10.0536 12.3661 10.0089L8.92857 2.59821C10.0446 2.19643 11.25 1.97321 12.5 1.97321C13.75 1.97321 14.9554 2.19643 16.0714 2.59821L12.6339 10.0089C12.5893 10.0536 12.5893 10.1429 12.5 10.1429ZM8.88393 18.1786C8.79464 18.1786 8.79464 18.0893 8.75 18.0446L3.125 7.24107C4.10714 5.63393 5.53571 4.29464 7.1875 3.35714L11.1607 11.9286C11.25 12.1071 11.3393 12.1518 11.4732 12.1518H13.5268C13.6607 12.1518 13.75 12.1071 13.8393 11.9286L17.7679 3.35714C19.4196 4.29464 20.8482 5.63393 21.8304 7.24107L16.25 18.0446C16.2054 18.1339 16.1607 18.1786 16.1161 18.1786C16.0268 18.1786 16.0268 18.0893 15.9821 18.0446L13.8393 13.3125C13.75 13.1339 13.6607 13.0893 13.5268 13.0893H11.4732C11.3393 13.0893 11.25 13.1339 11.1607 13.3125L9.01786 18.0446C8.97321 18.0893 8.97321 18.1786 8.88393 18.1786ZM12.5 25.5C19.4196 25.5 25 19.9196 25 13C25 6.08036 19.4196 0.5 12.5 0.5C5.58036 0.5 0 6.08036 0 13C0 19.9196 5.58036 25.5 12.5 25.5Z" fill="#414141"/>
</g>
<defs>
<clipPath id="clip0_1101_619">
<rect width="25" height="25" fill="white" transform="translate(0 0.5)"/>
</clipPath>
</defs>
</svg>
