<svg width="101" height="22" viewBox="0 0 101 22" fill="none" xmlns="http://www.w3.org/2000/svg">
<g clip-path="url(#clip0_966_5548)">
<path fill-rule="evenodd" clip-rule="evenodd" d="M0.912842 4.61914V6.43213H3.89474L9.73021 17.346H16.9111L22.7465 6.41401L25.7279 6.39527L25.7344 4.61914H16.8137V6.40148H19.1894L15.0687 14.1604L10.6122 6.42854L13.8627 6.41401L13.857 4.61914H0.912842Z" fill="#414141"/>
<path fill-rule="evenodd" clip-rule="evenodd" d="M58.4628 4.61938V6.43238H61.4438L67.2794 17.3462H74.4605L80.296 6.41426L83.2777 6.39552L83.2831 4.61938H74.364V6.40172H76.7387L72.6181 14.1606L68.1612 6.42878L71.4126 6.41426L71.4065 4.61938H58.4628Z" fill="#414141"/>
<path fill-rule="evenodd" clip-rule="evenodd" d="M43.7905 4.61926V6.43226H46.7719L46.7769 15.3425H43.6337V17.3285L46.779 17.3462H61.6657V11.4221H59.7265C59.6202 14.5586 56.8918 15.3467 55.7426 15.3467C54.6896 15.3467 52.6492 15.3426 52.6492 15.3426V6.42866L55.5858 6.41401L55.5818 4.61914H43.7905V4.61926Z" fill="#414141"/>
<path fill-rule="evenodd" clip-rule="evenodd" d="M33.6215 15.7163C31.8349 15.7163 30.3874 13.5821 30.3874 10.9481C30.3874 8.31344 31.8349 6.17762 33.6215 6.17762C35.4076 6.17762 36.8557 8.31344 36.8557 10.9481C36.8557 13.5821 35.4076 15.7163 33.6215 15.7163ZM33.753 4.25366C28.685 4.25366 24.5768 7.26316 24.5768 10.974C24.5768 14.6852 28.6849 17.6943 33.753 17.6943C38.8205 17.6943 42.9294 14.6852 42.9294 10.974C42.9294 7.26316 38.8205 4.25366 33.753 4.25366Z" fill="#414141"/>
<path fill-rule="evenodd" clip-rule="evenodd" d="M91.1717 15.6823C89.3857 15.6823 87.9383 13.5127 87.9383 10.8351C87.9383 8.15852 89.3858 5.98844 91.1717 5.98844C92.9579 5.98844 94.4051 8.15852 94.4051 10.8351C94.4052 13.5126 92.9579 15.6823 91.1717 15.6823ZM91.3037 4.03296C86.2347 4.03296 82.1277 7.09148 82.1277 10.8629C82.1277 14.6343 86.2346 17.6922 91.3037 17.6922C96.3709 17.6922 100.479 14.6343 100.479 10.8629C100.479 7.09148 96.3709 4.03296 91.3037 4.03296Z" fill="#414141"/>
</g>
<defs>
<clipPath id="clip0_966_5548">
<rect width="100" height="20.4918" fill="white" transform="translate(0.912842 0.75415)"/>
</clipPath>
</defs>
</svg>
