<svg width="30" height="20" viewBox="0 0 30 20" fill="none" xmlns="http://www.w3.org/2000/svg">
<rect width="30" height="20" rx="2" fill="white"/>
<path d="M18.5197 4.09253H11.3997V15.4075H18.5197V4.09253Z" fill="#FF5F00"/>
<path d="M12.1996 9.7501C12.1996 7.5801 13.2396 5.4876 14.9996 4.0926C11.7996 1.6126 7.07964 2.1551 4.59964 5.3326C2.11964 8.5101 2.59964 13.0051 5.87964 15.4076C8.59964 17.4226 12.3596 17.4226 15.0796 15.4076C13.2396 14.0126 12.1996 11.9201 12.1996 9.7501Z" fill="#EB001B"/>
<path d="M26.2801 14.1674V13.9349H26.3601V13.8574H26.1201V13.9349H26.2001L26.2801 14.1674ZM26.7601 14.1674V13.8574H26.6801L26.6001 14.0899L26.5201 13.8574H26.4401V14.1674H26.5201V13.9349L26.6001 14.0899H26.6801L26.7601 13.9349V14.1674Z" fill="#F79E1B"/>
<path d="M27 9.7501C27 13.7026 23.64 16.9576 19.56 16.9576C17.88 16.9576 16.28 16.4151 15 15.4076C18.2 12.9276 18.76 8.4326 16.28 5.3326C15.88 4.8676 15.48 4.4801 15 4.0926C18.2 1.6126 22.92 2.1551 25.4 5.3326C26.44 6.5726 27 8.1226 27 9.7501Z" fill="#F79E1B"/>
</svg>
